<svg width="198" height="61" viewBox="0 0 198 61" fill="none" xmlns="http://www.w3.org/2000/svg">
<path fill-rule="evenodd" clip-rule="evenodd" d="M122.66 47.2916C111.198 55.7397 94.5854 60.2471 80.2819 60.2471C60.2261 60.2471 42.1708 52.8291 28.5111 40.4919C27.4381 39.5215 28.3996 38.1994 29.6874 38.955C44.4287 47.532 62.6558 52.6919 81.4839 52.6919C94.1819 52.6919 108.15 50.0647 120.994 44.6129C122.935 43.7887 124.557 45.8835 122.66 47.2916Z" fill="#606060"/>
<path fill-rule="evenodd" clip-rule="evenodd" d="M114.303 7.29774V2.81616C114.303 2.13787 114.818 1.68285 115.436 1.68285H135.5C136.144 1.68285 136.66 2.14635 136.66 2.81616V6.65377C136.651 7.29774 136.11 8.13914 135.149 9.46989L124.752 24.3142C128.615 24.2199 132.693 24.795 136.196 26.7698C136.986 27.2161 137.2 27.8688 137.261 28.5125V33.2947C137.261 33.9471 136.539 34.7112 135.784 34.3164C129.611 31.0797 121.412 30.7277 114.586 34.3507C113.891 34.7286 113.161 33.973 113.161 33.3205V28.7788C113.161 28.049 113.17 26.8041 113.899 25.6966L125.945 8.42257H115.462C114.818 8.42257 114.303 7.96755 114.303 7.29774ZM41.1115 35.2607H35.0071C34.4233 35.2179 33.9598 34.7801 33.9168 34.2219V2.89348C33.9168 2.26667 34.4404 1.76865 35.0929 1.76865H40.7851C41.3776 1.79429 41.8498 2.24951 41.8928 2.81597V6.91155H42.0044C43.4896 2.95364 46.2799 1.10791 50.0403 1.10791C53.8608 1.10791 56.2477 2.95364 57.9648 6.91155C59.4415 2.95364 62.7985 1.10791 66.3959 1.10791C68.9542 1.10791 71.7532 2.16391 73.4616 4.53349C75.3933 7.16914 74.9985 10.9983 74.9985 14.3552L74.9898 34.1276C74.9898 34.7544 74.4661 35.2609 73.8137 35.2609H67.7179C67.1085 35.2181 66.6189 34.7288 66.6189 34.1276V17.5232C66.6189 16.2009 66.7392 12.9039 66.4473 11.6507C65.9923 9.5472 64.6273 8.95471 62.8584 8.95471C61.3817 8.95471 59.8364 9.94207 59.2096 11.5219C58.583 13.1018 58.6431 15.7459 58.6431 17.5232V34.1274C58.6431 34.7542 58.1193 35.2607 57.4668 35.2607H51.3711C50.753 35.2179 50.2721 34.7286 50.2721 34.1274L50.2636 17.5232C50.2636 14.0288 50.8387 8.88627 46.5031 8.88627C42.116 8.88627 42.2876 13.9 42.2876 17.5232V34.1274C42.2876 34.7542 41.764 35.2607 41.1115 35.2607ZM153.934 1.10772C162.991 1.10772 167.894 8.88607 167.894 18.7766C167.894 28.3323 162.476 35.9134 153.933 35.9134C145.039 35.9134 140.197 28.1348 140.197 18.4417C140.197 8.68864 145.099 1.10772 153.934 1.10772ZM153.985 7.50385C149.486 7.50385 149.203 13.6339 149.203 17.4544C149.203 21.2837 149.143 29.4569 153.934 29.4569C158.664 29.4569 158.887 22.8633 158.887 18.8453C158.887 16.2009 158.776 13.0414 157.977 10.5346C157.291 8.35373 155.925 7.50385 153.985 7.50385ZM179.639 35.2607H173.56C172.951 35.2179 172.461 34.7286 172.461 34.1274L172.453 2.79033C172.504 2.21519 173.011 1.76865 173.629 1.76865H179.287C179.819 1.79429 180.257 2.15523 180.377 2.64437V7.43521H180.489C182.197 3.15107 184.592 1.10772 188.808 1.10772C191.547 1.10772 194.217 2.09488 195.934 4.79936C197.531 7.30622 197.531 11.5219 197.531 14.5526V34.2734C197.462 34.8229 196.956 35.2607 196.355 35.2607H190.233C189.675 35.2179 189.212 34.8057 189.151 34.2734V17.2569C189.151 13.8313 189.546 8.81724 185.331 8.81724C183.846 8.81724 182.48 9.81327 181.802 11.3243C180.944 13.239 180.832 15.1449 180.832 17.2571V34.1274C180.824 34.7542 180.291 35.2607 179.639 35.2607ZM98.3081 20.2963C98.3081 22.6744 98.3682 24.6578 97.1661 26.7696C96.1961 28.4869 94.6508 29.5427 92.9421 29.5427C90.5984 29.5427 89.2246 27.7571 89.2246 25.1213C89.2246 19.9184 93.8867 18.974 98.3081 18.974V20.2963ZM104.464 35.1749C104.06 35.5355 103.477 35.5613 103.022 35.3209C100.995 33.6381 100.626 32.8568 99.5187 31.2513C96.1703 34.6684 93.7922 35.6901 89.4564 35.6901C84.3137 35.6901 80.3214 32.5219 80.3214 26.1775C80.3214 21.2235 83.0001 17.8494 86.8292 16.2009C90.1433 14.7414 94.7709 14.4838 98.3083 14.0803V13.2905C98.3083 11.8395 98.4197 10.1223 97.5612 8.86891C96.8229 7.74428 95.3975 7.28058 94.1356 7.28058C91.8088 7.28058 89.7398 8.47385 89.2333 10.9466C89.1301 11.4961 88.7266 12.0369 88.1686 12.0627L82.2532 11.4274C81.7553 11.3158 81.1972 10.9123 81.3431 10.1482C82.6997 2.9708 89.1903 0.807129 94.9943 0.807129C97.9649 0.807129 101.845 1.59706 104.189 3.84652C107.16 6.61964 106.877 10.3198 106.877 14.3465V23.8592C106.877 26.7183 108.062 27.9715 109.178 29.517C109.564 30.0665 109.65 30.7277 109.152 31.1397C107.907 32.1785 105.692 34.1103 104.473 35.1921L104.464 35.1749M18.2825 20.2963C18.2825 22.6744 18.3427 24.6578 17.1406 26.7696C16.1706 28.4869 14.6337 29.5427 12.9166 29.5427C10.5728 29.5427 9.20757 27.7571 9.20757 25.1213C9.20757 19.9184 13.8696 18.974 18.2825 18.974V20.2963ZM24.4383 35.1749C24.0349 35.5355 23.4511 35.5613 22.9961 35.3209C20.9699 33.6381 20.6091 32.8568 19.4932 31.2513C16.1447 34.6684 13.7753 35.6901 9.43084 35.6901C4.29681 35.6901 0.295898 32.5219 0.295898 26.1775C0.295898 21.2235 2.98322 17.8494 6.80367 16.2009C10.1178 14.7414 14.7453 14.4838 18.2825 14.0803V13.2905C18.2825 11.8395 18.3942 10.1223 17.5441 8.86891C16.7972 7.74428 15.3721 7.28058 14.1185 7.28058C11.7919 7.28058 9.71426 8.47385 9.20757 10.9466C9.10461 11.4961 8.70107 12.0369 8.15157 12.0627L2.22762 11.4274C1.7296 11.3158 1.1803 10.9123 1.31758 10.1482C2.68264 2.9708 9.16477 0.807129 14.9686 0.807129C17.939 0.807129 21.8198 1.59706 24.1637 3.84652C27.1341 6.61964 26.8508 10.3198 26.8508 14.3465V23.8592C26.8508 26.7183 28.0356 27.9715 29.1518 29.517C29.5468 30.0665 29.6326 30.7277 29.1346 31.1397C27.8897 32.1785 25.6747 34.1103 24.4556 35.1921L24.4383 35.1749Z" fill="#606060"/>
</svg>
