<svg width="24" height="25" viewBox="0 0 24 25" fill="none" xmlns="http://www.w3.org/2000/svg">
<path d="M22 19.3032V22.3032H2V19.3032C2 18.7532 2.45 18.3032 3 18.3032H21C21.55 18.3032 22 18.7532 22 19.3032Z" fill="#333333" stroke="#333333" stroke-width="1.5" stroke-miterlimit="10" stroke-linecap="round" stroke-linejoin="round"/>
<path d="M7 11.3032H5V18.3032H7V11.3032Z" fill="#333333"/>
<path d="M11 11.3032H9V18.3032H11V11.3032Z" fill="#333333"/>
<path d="M15 11.3032H13V18.3032H15V11.3032Z" fill="#333333"/>
<path d="M19 11.3032H17V18.3032H19V11.3032Z" fill="#333333"/>
<path d="M23 23.0532H1C0.59 23.0532 0.25 22.7132 0.25 22.3032C0.25 21.8932 0.59 21.5532 1 21.5532H23C23.41 21.5532 23.75 21.8932 23.75 22.3032C23.75 22.7132 23.41 23.0532 23 23.0532Z" fill="#333333"/>
<path d="M21.37 6.05331L12.37 2.45331C12.17 2.37331 11.83 2.37331 11.63 2.45331L2.63 6.05331C2.28 6.19331 2 6.60331 2 6.98331V10.3033C2 10.8533 2.45 11.3033 3 11.3033H21C21.55 11.3033 22 10.8533 22 10.3033V6.98331C22 6.60331 21.72 6.19331 21.37 6.05331ZM12 8.80331C11.17 8.80331 10.5 8.13331 10.5 7.30331C10.5 6.47331 11.17 5.80331 12 5.80331C12.83 5.80331 13.5 6.47331 13.5 7.30331C13.5 8.13331 12.83 8.80331 12 8.80331Z" fill="#333333"/>
</svg>
