<svg width="24" height="25" viewBox="0 0 24 25" fill="none" xmlns="http://www.w3.org/2000/svg">
<path d="M11.25 6.6971V20.6071C11.25 21.3171 10.53 21.8071 9.88 21.5371C8.02 20.7571 5.71 20.0771 4.07 19.8571L3.76 19.8171C2.79 19.6971 2 18.8071 2 17.8371V5.9471C2 4.7471 2.97 3.7771 4.17 3.7771H4.24C6.12 3.9371 8.89 4.8171 10.72 5.8071C11.05 5.9871 11.25 6.3171 11.25 6.6971Z" fill="#333333"/>
<path d="M19.83 3.7771H19.77C19.53 3.7971 19.27 3.8271 19 3.8771C17.77 4.0771 16.31 4.4971 15 5.0171C14.38 5.2671 13.8 5.5371 13.29 5.8071C12.96 5.9871 12.75 6.3271 12.75 6.6971V20.6071C12.75 21.3171 13.47 21.8071 14.12 21.5371C15.98 20.7571 18.29 20.0771 19.93 19.8571L20.24 19.8171C21.21 19.6971 22 18.8071 22 17.8371V5.9471C22 4.7471 21.03 3.7771 19.83 3.7771ZM19.27 14.4271C19.27 14.8171 18.99 14.9871 18.65 14.7971L17.59 14.2071C17.48 14.1471 17.3 14.1471 17.18 14.2071L16.12 14.7971C15.78 14.9871 15.5 14.8171 15.5 14.4271V11.3571C15.5 10.8971 15.88 10.5171 16.34 10.5171H18.44C18.9 10.5171 19.28 10.8971 19.28 11.3571V14.4271H19.27Z" fill="#333333"/>
</svg>
