<svg width="24" height="25" viewBox="0 0 24 25" fill="none" xmlns="http://www.w3.org/2000/svg">
<path d="M21.09 7.67704C20.24 6.73704 18.82 6.26704 16.76 6.26704H16.52V6.22704C16.52 4.54704 16.52 2.46704 12.76 2.46704H11.24C7.48004 2.46704 7.48004 4.55704 7.48004 6.22704V6.27704H7.24004C5.17004 6.27704 3.76004 6.74704 2.91004 7.68704C1.92004 8.78704 1.95004 10.267 2.05004 11.277L2.06004 11.347L2.13749 12.1603C2.15176 12.3101 2.23242 12.4454 2.35831 12.5278C2.59812 12.6847 2.99946 12.9434 3.24004 13.077C3.38004 13.167 3.53004 13.247 3.68004 13.327C5.39004 14.267 7.27004 14.897 9.18004 15.207C9.27004 16.147 9.68004 17.247 11.87 17.247C14.06 17.247 14.49 16.157 14.56 15.187C16.6 14.857 18.57 14.147 20.35 13.107C20.41 13.077 20.45 13.047 20.5 13.017C20.8968 12.7928 21.3083 12.5165 21.6835 12.2459C21.7965 12.1644 21.8688 12.0383 21.8842 11.8998L21.9 11.757L21.95 11.287C21.96 11.227 21.96 11.177 21.97 11.107C22.05 10.097 22.03 8.71704 21.09 7.67704ZM13.09 14.527C13.09 15.587 13.09 15.747 11.86 15.747C10.63 15.747 10.63 15.557 10.63 14.537V13.277H13.09V14.527ZM8.91004 6.26704V6.22704C8.91004 4.52704 8.91004 3.89704 11.24 3.89704H12.76C15.09 3.89704 15.09 4.53704 15.09 6.22704V6.27704H8.91004V6.26704Z" fill="#333333"/>
<path d="M20.8733 14.4312C21.2269 14.2629 21.6342 14.5432 21.5988 14.9332L21.2398 18.887C21.0298 20.887 20.2098 22.927 15.8098 22.927H8.18984C3.78984 22.927 2.96984 20.887 2.75984 18.897L2.41913 15.1492C2.38409 14.7637 2.78205 14.4837 3.13468 14.6433C4.2741 15.1588 6.37724 16.0734 7.67641 16.4137C7.84072 16.4567 7.97361 16.5743 8.04556 16.7282C8.65253 18.0263 9.96896 18.717 11.8698 18.717C13.752 18.717 15.085 17.9997 15.694 16.6984C15.766 16.5444 15.8991 16.4268 16.0635 16.3836C17.443 16.0206 19.6816 14.9982 20.8733 14.4312Z" fill="#333333"/>
</svg>
