<svg width="40" height="40" viewBox="0 0 40 40" fill="none" xmlns="http://www.w3.org/2000/svg">
<path d="M25.9833 2.91669C21.0333 2.91669 17.0166 6.93335 17.0166 11.8834C17.0166 16.8334 21.0333 20.85 25.9833 20.85C30.9333 20.85 34.9499 16.8334 34.9499 11.8834C34.9499 6.93335 30.9333 2.91669 25.9833 2.91669Z" fill="white"/>
<path d="M10.5998 21.7167C7.5498 21.7167 5.0498 24.2 5.0498 27.2667C5.0498 30.3333 7.53314 32.8167 10.5998 32.8167C13.6498 32.8167 16.1498 30.3333 16.1498 27.2667C16.1498 24.2 13.6498 21.7167 10.5998 21.7167Z" fill="white"/>
<path d="M27.6999 27.7C25.1166 27.7 23.0166 29.8 23.0166 32.3833C23.0166 34.9667 25.1166 37.0667 27.6999 37.0667C30.2833 37.0667 32.3833 34.9667 32.3833 32.3833C32.3833 29.8 30.2833 27.7 27.6999 27.7Z" fill="white"/>
</svg>
