<svg width="24" height="25" viewBox="0 0 24 25" fill="none" xmlns="http://www.w3.org/2000/svg">
<path d="M17.62 11.4471C17.19 11.4471 16.85 11.0971 16.85 10.6771C16.85 10.3071 16.48 9.53712 15.86 8.86712C15.25 8.21712 14.58 7.83712 14.02 7.83712C13.59 7.83712 13.25 7.48712 13.25 7.06712C13.25 6.64712 13.6 6.29712 14.02 6.29712C15.02 6.29712 16.07 6.83712 16.99 7.80712C17.85 8.71712 18.4 9.84712 18.4 10.6671C18.4 11.0971 18.05 11.4471 17.62 11.4471Z" fill="#333333"/>
<path d="M21.2298 11.447C20.7998 11.447 20.4598 11.097 20.4598 10.677C20.4598 7.12702 17.5698 4.24702 14.0298 4.24702C13.5998 4.24702 13.2598 3.89702 13.2598 3.47702C13.2598 3.05702 13.5998 2.69702 14.0198 2.69702C18.4198 2.69702 21.9998 6.27702 21.9998 10.677C21.9998 11.097 21.6498 11.447 21.2298 11.447Z" fill="#333333"/>
<path d="M11.05 15.647L9.2 17.497C8.81 17.887 8.19 17.887 7.79 17.507C7.68 17.397 7.57 17.297 7.46 17.187C6.43 16.147 5.5 15.057 4.67 13.917C3.85 12.777 3.19 11.637 2.71 10.507C2.24 9.36702 2 8.27702 2 7.23702C2 6.55702 2.12 5.90702 2.36 5.30702C2.6 4.69702 2.98 4.13702 3.51 3.63702C4.15 3.00702 4.85 2.69702 5.59 2.69702C5.87 2.69702 6.15 2.75702 6.4 2.87702C6.66 2.99702 6.89 3.17702 7.07 3.43702L9.39 6.70702C9.57 6.95702 9.7 7.18702 9.79 7.40702C9.88 7.61702 9.93 7.82702 9.93 8.01702C9.93 8.25702 9.86 8.49702 9.72 8.72702C9.59 8.95702 9.4 9.19702 9.16 9.43702L8.4 10.227C8.29 10.337 8.24 10.467 8.24 10.627C8.24 10.707 8.25 10.777 8.27 10.857C8.3 10.937 8.33 10.997 8.35 11.057C8.53 11.387 8.84 11.817 9.28 12.337C9.73 12.857 10.21 13.387 10.73 13.917C10.83 14.017 10.94 14.117 11.04 14.217C11.44 14.607 11.45 15.247 11.05 15.647Z" fill="#333333"/>
<path d="M21.9696 19.0271C21.9696 19.3071 21.9196 19.5971 21.8196 19.8771C21.7896 19.9571 21.7596 20.0371 21.7196 20.1171C21.5496 20.4771 21.3296 20.8171 21.0396 21.1371C20.5496 21.6771 20.0096 22.0671 19.3996 22.3171C19.3896 22.3171 19.3796 22.3271 19.3696 22.3271C18.7796 22.5671 18.1396 22.6971 17.4496 22.6971C16.4296 22.6971 15.3396 22.4571 14.1896 21.9671C13.0396 21.4771 11.8896 20.8171 10.7496 19.9871C10.3596 19.6971 9.96961 19.4071 9.59961 19.0971L12.8696 15.8271C13.1496 16.0371 13.3996 16.1971 13.6096 16.3071C13.6596 16.3271 13.7196 16.3571 13.7896 16.3871C13.8696 16.4171 13.9496 16.4271 14.0396 16.4271C14.2096 16.4271 14.3396 16.3671 14.4496 16.2571L15.2096 15.5071C15.4596 15.2571 15.6996 15.0671 15.9296 14.9471C16.1596 14.8071 16.3896 14.7371 16.6396 14.7371C16.8296 14.7371 17.0296 14.7771 17.2496 14.8671C17.4696 14.9571 17.6996 15.0871 17.9496 15.2571L21.2596 17.6071C21.5196 17.7871 21.6996 17.9971 21.8096 18.2471C21.9096 18.4971 21.9696 18.7471 21.9696 19.0271Z" fill="#333333"/>
</svg>
