<svg width="40" height="41" viewBox="0 0 40 41" fill="none" xmlns="http://www.w3.org/2000/svg">
<path d="M29.3666 18.4166C28.6499 18.4166 28.0833 17.8333 28.0833 17.1333C28.0833 16.5166 27.4666 15.2333 26.4333 14.1166C25.4166 13.0333 24.2999 12.3999 23.3666 12.3999C22.6499 12.3999 22.0833 11.8166 22.0833 11.1166C22.0833 10.4166 22.6666 9.83325 23.3666 9.83325C25.0333 9.83325 26.7833 10.7333 28.3166 12.3499C29.7499 13.8666 30.6666 15.7499 30.6666 17.1166C30.6666 17.8333 30.0833 18.4166 29.3666 18.4166Z" fill="#F4C418"/>
<path d="M35.3834 18.4166C34.6668 18.4166 34.1001 17.8333 34.1001 17.1333C34.1001 11.2166 29.2834 6.41659 23.3834 6.41659C22.6668 6.41659 22.1001 5.83325 22.1001 5.13325C22.1001 4.43325 22.6668 3.83325 23.3668 3.83325C30.7001 3.83325 36.6668 9.79992 36.6668 17.1333C36.6668 17.8333 36.0834 18.4166 35.3834 18.4166Z" fill="#F4C418"/>
<path d="M18.4166 25.4166L15.3333 28.4999C14.6833 29.1499 13.6499 29.1499 12.9833 28.5166C12.7999 28.3333 12.6166 28.1666 12.4333 27.9833C10.7166 26.2499 9.16659 24.4333 7.78325 22.5333C6.41659 20.6333 5.31659 18.7333 4.51659 16.8499C3.73325 14.9499 3.33325 13.1333 3.33325 11.3999C3.33325 10.2666 3.53325 9.18325 3.93325 8.18325C4.33325 7.16659 4.96659 6.23325 5.84992 5.39992C6.91659 4.34992 8.08325 3.83325 9.31659 3.83325C9.78325 3.83325 10.2499 3.93325 10.6666 4.13325C11.0999 4.33325 11.4833 4.63325 11.7833 5.06659L15.6499 10.5166C15.9499 10.9333 16.1666 11.3166 16.3166 11.6833C16.4666 12.0333 16.5499 12.3833 16.5499 12.6999C16.5499 13.0999 16.4333 13.4999 16.1999 13.8833C15.9833 14.2666 15.6666 14.6666 15.2666 15.0666L13.9999 16.3833C13.8166 16.5666 13.7333 16.7833 13.7333 17.0499C13.7333 17.1833 13.7499 17.2999 13.7833 17.4333C13.8333 17.5666 13.8833 17.6666 13.9166 17.7666C14.2166 18.3166 14.7333 19.0333 15.4666 19.8999C16.2166 20.7666 17.0166 21.6499 17.8833 22.5333C18.0499 22.6999 18.2333 22.8666 18.3999 23.0333C19.0666 23.6833 19.0833 24.7499 18.4166 25.4166Z" fill="#F4C418"/>
<path d="M36.6167 31.0499C36.6167 31.5166 36.5333 31.9999 36.3667 32.4666C36.3167 32.5999 36.2667 32.7332 36.2 32.8666C35.9167 33.4666 35.55 34.0332 35.0667 34.5666C34.25 35.4666 33.35 36.1166 32.3333 36.5332C32.3167 36.5332 32.3 36.5499 32.2833 36.5499C31.3 36.9499 30.2333 37.1666 29.0833 37.1666C27.3833 37.1666 25.5667 36.7666 23.65 35.9499C21.7333 35.1332 19.8167 34.0332 17.9167 32.6499C17.2667 32.1666 16.6167 31.6832 16 31.1666L21.45 25.7166C21.9167 26.0666 22.3333 26.3332 22.6833 26.5166C22.7667 26.5499 22.8667 26.5999 22.9833 26.6499C23.1167 26.6999 23.25 26.7166 23.4 26.7166C23.6833 26.7166 23.9 26.6166 24.0833 26.4332L25.35 25.1832C25.7667 24.7666 26.1667 24.4499 26.55 24.2499C26.9333 24.0166 27.3167 23.8999 27.7333 23.8999C28.05 23.8999 28.3833 23.9666 28.75 24.1166C29.1167 24.2666 29.5 24.4832 29.9167 24.7666L35.4333 28.6832C35.8667 28.9832 36.1667 29.3332 36.35 29.7499C36.5167 30.1666 36.6167 30.5832 36.6167 31.0499Z" fill="#F4C418"/>
</svg>
