<svg width="48" height="48" viewBox="0 0 48 48" fill="none" xmlns="http://www.w3.org/2000/svg">
<g clip-path="url(#clip0_15427_6326)">
<path d="M24.4307 0.952148C37.4107 0.952148 47.9307 11.4721 47.9307 24.4521C47.9307 37.4322 37.4107 47.9521 24.4307 47.9521C11.4506 47.9521 0.930664 37.4322 0.930664 24.4521C0.930664 11.4721 11.4506 0.952148 24.4307 0.952148Z" fill="#0052FF"/>
<path d="M24.4353 32.7139C19.8729 32.7139 16.1735 29.019 16.1735 24.4521C16.1735 19.8853 19.8729 16.1904 24.4353 16.1904C28.5248 16.1904 31.9213 19.1738 32.573 23.0752H40.8944C40.1922 14.5932 33.0917 7.92871 24.4307 7.92871C15.3061 7.92871 7.90723 15.3275 7.90723 24.4521C7.90723 33.5768 15.3061 40.9756 24.4307 40.9756C33.0917 40.9756 40.1922 34.3111 40.8944 25.8291H32.5685C31.9121 29.7305 28.5248 32.7139 24.4353 32.7139Z" fill="white"/>
</g>
<defs>
<clipPath id="clip0_15427_6326">
<rect width="47" height="47" fill="white" transform="translate(0.930664 0.952148)"/>
</clipPath>
</defs>
</svg>
