<svg width="24" height="23" viewBox="0 0 24 23" fill="none" xmlns="http://www.w3.org/2000/svg">
<path d="M16 6.69702H8V14.697H16V6.69702Z" fill="#333333"/>
<path d="M2 17.697C2 19.347 3.35 20.697 5 20.697C6.65 20.697 8 19.347 8 17.697V14.697H5C3.35 14.697 2 16.047 2 17.697Z" fill="#333333"/>
<path d="M5 0.697021C3.35 0.697021 2 2.04702 2 3.69702C2 5.34702 3.35 6.69702 5 6.69702H8V3.69702C8 2.04702 6.65 0.697021 5 0.697021Z" fill="#333333"/>
<path d="M22 3.69702C22 2.04702 20.65 0.697021 19 0.697021C17.35 0.697021 16 2.04702 16 3.69702V6.69702H19C20.65 6.69702 22 5.34702 22 3.69702Z" fill="#333333"/>
<path d="M19 14.697H16V17.697C16 19.347 17.35 20.697 19 20.697C20.65 20.697 22 19.347 22 17.697C22 16.047 20.65 14.697 19 14.697Z" fill="#333333"/>
</svg>
