<svg width="236" height="136" viewBox="0 0 236 136" fill="none" xmlns="http://www.w3.org/2000/svg">
<rect x="98.5874" y="17.9128" width="39.0741" height="4.1863" rx="2.09315" fill="#156064"/>
<rect x="91.9106" y="25.4482" width="52.4274" height="4.1863" rx="2.09315" fill="#156064"/>
<rect x="91.9106" y="32.9834" width="52.4274" height="4.1863" rx="2.09315" fill="#156064"/>
<rect x="98.5874" y="40.5188" width="39.0741" height="4.1863" rx="2.09315" fill="#156064"/>
<path d="M19.8666 118.352C9.87859 118.352 1.9959 110.323 1.9959 99.9918C1.9959 89.71 9.87859 81.7294 19.8666 81.7294C29.5119 81.7294 36.9539 88.1433 38.08 97.4458H28.2879C27.5534 93.0393 24.2731 90.0038 19.9645 90.0038C14.7747 90.0038 11.4943 94.0186 11.4943 99.9918C11.4943 106.014 14.7747 110.078 19.9645 110.078C24.2241 110.078 27.5045 107.042 28.2879 102.587H38.08C36.905 111.987 29.5119 118.352 19.8666 118.352ZM50.5635 105.475V117.618H42.1912V91.2768H49.878V95.928C51.8854 92.8435 56.0471 91.0809 60.2577 91.0809V99.7959C54.3335 99.2084 50.5635 99.6491 50.5635 105.475ZM75.1265 118.058C66.999 118.058 61.5644 112.575 61.5644 104.398C61.5644 96.5156 67.2438 90.7871 75.0776 90.7871C83.7926 90.7871 89.6189 97.8865 88.1011 106.553H70.2304C70.6711 109.882 72.2378 111.547 74.9307 111.547C77.2808 111.547 78.8475 110.567 79.582 108.658H87.9543C86.3386 114.68 81.6873 118.058 75.1265 118.058ZM74.8817 96.9562C72.3847 96.9562 70.9159 98.3761 70.3284 101.314H79.1413C79.0434 98.6698 77.3787 96.9562 74.8817 96.9562ZM90.0133 104.447C90.0133 96.8093 94.6646 90.7871 101.764 90.7871C104.506 90.7871 106.856 91.7664 108.912 93.7248V82.4638H117.284V117.618H109.598V114.631C107.443 116.883 104.848 118.107 101.764 118.107C94.6646 118.107 90.0133 111.987 90.0133 104.447ZM98.7283 104.447C98.7283 108.56 101.225 110.567 103.771 110.567C106.366 110.567 108.814 108.56 108.814 104.398C108.814 100.188 106.317 98.3271 103.771 98.3271C101.225 98.3271 98.7283 100.237 98.7283 104.447ZM150.028 104.447C150.028 111.987 145.376 118.107 138.277 118.107C135.193 118.107 132.598 116.883 130.443 114.631V117.618H122.757V82.4638H131.129V93.7248C133.185 91.7664 135.535 90.7871 138.277 90.7871C145.376 90.7871 150.028 96.8093 150.028 104.447ZM141.313 104.447C141.313 100.237 138.816 98.3271 136.27 98.3271C133.724 98.3271 131.227 100.188 131.227 104.398C131.227 108.56 133.675 110.567 136.27 110.567C138.816 110.567 141.313 108.56 141.313 104.447ZM165.733 118.058C157.605 118.058 152.171 112.575 152.171 104.398C152.171 96.5156 157.85 90.7871 165.684 90.7871C174.399 90.7871 180.225 97.8865 178.707 106.553H160.837C161.277 109.882 162.844 111.547 165.537 111.547C167.887 111.547 169.454 110.567 170.188 108.658H178.56C176.945 114.68 172.293 118.058 165.733 118.058ZM165.488 96.9562C162.991 96.9562 161.522 98.3761 160.935 101.314H169.747C169.65 98.6698 167.985 96.9562 165.488 96.9562ZM207.119 91.2768L197.669 117.618H188.367L178.819 91.2768H187.926L193.214 108.119L198.6 91.2768H207.119ZM235.424 91.2768L222.89 127.067H213.735L217.407 117.324L207.125 91.2768H216.232L221.911 107.581L227.003 91.2768H235.424Z" fill="#333333"/>
</svg>
