<svg width="21" height="21" viewBox="0 0 21 21" fill="none" xmlns="http://www.w3.org/2000/svg">
<path d="M9.99514 0.203142C4.46126 0.223192 -0.0199833 4.72449 6.70213e-05 10.2584C0.0201173 15.7923 4.52141 20.2735 10.0553 20.2535C15.5892 20.2334 20.0704 15.7321 20.0504 10.1982C20.0303 4.66434 15.529 0.193117 9.99514 0.203142ZM12.2909 10.3286C13.0729 10.5992 14.1255 11.1807 14.1255 12.9752C14.1255 14.5191 12.9125 15.7622 11.4287 15.7622H10.7771V16.3437C10.7771 16.7547 10.4362 17.0956 10.0252 17.0956C9.61418 17.0956 9.27332 16.7547 9.27332 16.3437V15.7622H8.91242C7.2683 15.7622 5.93495 14.3787 5.93495 12.6745C5.93495 12.2634 6.27581 11.9226 6.68684 11.9226C7.09787 11.9226 7.43872 12.2634 7.43872 12.6745C7.43872 13.5466 8.10038 14.2584 8.91242 14.2584H9.27332V10.8699L7.75953 10.3286C6.97757 10.0579 5.92493 9.47642 5.92493 7.68192C5.92493 6.13804 7.13797 4.89492 8.62169 4.89492H9.27332V4.31346C9.27332 3.90243 9.61418 3.56157 10.0252 3.56157C10.4362 3.56157 10.7771 3.90243 10.7771 4.31346V4.89492H11.138C12.7821 4.89492 14.1155 6.27839 14.1155 7.98267C14.1155 8.3937 13.7746 8.73456 13.3636 8.73456C12.9526 8.73456 12.6117 8.3937 12.6117 7.98267C12.6117 7.11048 11.95 6.3987 11.138 6.3987H10.7771V9.7872L12.2909 10.3286Z" fill="#333333"/>
</svg>
