<svg width="24" height="25" viewBox="0 0 24 25" fill="none" xmlns="http://www.w3.org/2000/svg">
<path d="M12.75 16.2233H13.4C14.05 16.2233 14.59 15.6433 14.59 14.9433C14.59 14.0733 14.28 13.9033 13.77 13.7233L12.76 13.3733V16.2233H12.75Z" fill="#333333"/>
<path d="M11.9951 2.20314C6.46126 2.22319 1.98002 6.72449 2.00007 12.2584C2.02012 17.7923 6.52141 22.2735 12.0553 22.2535C17.5892 22.2334 22.0704 17.7321 22.0504 12.1982C22.0303 6.66434 17.529 2.19312 11.9951 2.20314ZM14.2909 12.3286C15.0729 12.5992 16.1255 13.1807 16.1255 14.9752C16.1255 16.5191 14.9125 17.7622 13.4287 17.7622H12.7771V18.3437C12.7771 18.7547 12.4362 19.0956 12.0252 19.0956C11.6142 19.0956 11.2733 18.7547 11.2733 18.3437V17.7622H10.9124C9.2683 17.7622 7.93495 16.3787 7.93495 14.6745C7.93495 14.2634 8.27581 13.9226 8.68684 13.9226C9.09787 13.9226 9.43872 14.2634 9.43872 14.6745C9.43872 15.5466 10.1004 16.2584 10.9124 16.2584H11.2733V12.8699L9.75953 12.3286C8.97757 12.0579 7.92493 11.4764 7.92493 9.68192C7.92493 8.13804 9.13797 6.89492 10.6217 6.89492H11.2733V6.31346C11.2733 5.90243 11.6142 5.56157 12.0252 5.56157C12.4362 5.56157 12.7771 5.90243 12.7771 6.31346V6.89492H13.138C14.7821 6.89492 16.1155 8.27839 16.1155 9.98267C16.1155 10.3937 15.7746 10.7346 15.3636 10.7346C14.9526 10.7346 14.6117 10.3937 14.6117 9.98267C14.6117 9.11048 13.95 8.3987 13.138 8.3987H12.7771V11.7872L14.2909 12.3286Z" fill="#333333"/>
<path d="M9.41992 9.6733C9.41992 10.5433 9.72992 10.7133 10.2399 10.8933L11.2499 11.2433V8.3833H10.5999C9.94992 8.3833 9.41992 8.9633 9.41992 9.6733Z" fill="#333333"/>
</svg>
