<svg width="24" height="25" viewBox="0 0 24 25" fill="none" xmlns="http://www.w3.org/2000/svg">
<path d="M7.64957 21.6071C7.61957 21.6071 7.57957 21.6271 7.54957 21.6271C5.60957 20.6671 4.02957 19.0771 3.05957 17.1371C3.05957 17.1071 3.07957 17.0671 3.07957 17.0371C4.29957 17.3971 5.55957 17.6671 6.80957 17.8771C7.02957 19.1371 7.28957 20.3871 7.64957 21.6071Z" fill="#333333"/>
<path d="M20.94 17.1471C19.95 19.1371 18.3 20.7471 16.29 21.7171C16.67 20.4471 16.99 19.1671 17.2 17.8771C18.46 17.6671 19.7 17.3971 20.92 17.0371C20.91 17.0771 20.94 17.1171 20.94 17.1471Z" fill="#333333"/>
<path d="M21.02 8.407C19.76 8.027 18.49 7.717 17.2 7.497C16.99 6.207 16.68 4.927 16.29 3.677C18.36 4.667 20.03 6.337 21.02 8.407Z" fill="#333333"/>
<path d="M7.65047 3.78708C7.29047 5.00708 7.03047 6.24708 6.82047 7.50708C5.53047 7.70708 4.25047 8.02708 2.98047 8.40708C3.95047 6.39708 5.56047 4.74708 7.55047 3.75708C7.58047 3.75708 7.62047 3.78708 7.65047 3.78708Z" fill="#333333"/>
<path d="M15.4898 7.28702C13.1698 7.02702 10.8298 7.02702 8.50977 7.28702C8.75977 5.91702 9.07977 4.54702 9.52977 3.22702C9.54977 3.14702 9.53977 3.08702 9.54977 3.00702C10.3398 2.81702 11.1498 2.69702 11.9998 2.69702C12.8398 2.69702 13.6598 2.81702 14.4398 3.00702C14.4498 3.08702 14.4498 3.14702 14.4698 3.22702C14.9198 4.55702 15.2398 5.91702 15.4898 7.28702Z" fill="#333333"/>
<path d="M6.59 16.187C5.21 15.937 3.85 15.617 2.53 15.167C2.45 15.147 2.39 15.157 2.31 15.147C2.12 14.357 2 13.547 2 12.697C2 11.857 2.12 11.037 2.31 10.257C2.39 10.247 2.45 10.247 2.53 10.227C3.86 9.78703 5.21 9.45703 6.59 9.20703C6.34 11.527 6.34 13.867 6.59 16.187Z" fill="#333333"/>
<path d="M22.0002 12.697C22.0002 13.547 21.8802 14.357 21.6902 15.147C21.6102 15.157 21.5502 15.147 21.4702 15.167C20.1402 15.607 18.7802 15.937 17.4102 16.187C17.6702 13.867 17.6702 11.527 17.4102 9.20703C18.7802 9.45703 20.1502 9.77703 21.4702 10.227C21.5502 10.247 21.6102 10.257 21.6902 10.257C21.8802 11.047 22.0002 11.857 22.0002 12.697Z" fill="#333333"/>
<path d="M15.4898 18.1069C15.2398 19.4869 14.9198 20.8469 14.4698 22.1669C14.4498 22.2469 14.4498 22.3069 14.4398 22.3869C13.6598 22.5769 12.8398 22.6969 11.9998 22.6969C11.1498 22.6969 10.3398 22.5769 9.54977 22.3869C9.53977 22.3069 9.54977 22.2469 9.52977 22.1669C9.08977 20.8369 8.75977 19.4869 8.50977 18.1069C9.66977 18.2369 10.8298 18.3269 11.9998 18.3269C13.1698 18.3269 14.3398 18.2369 15.4898 18.1069Z" fill="#333333"/>
<path d="M15.7633 16.4604C13.2622 16.7759 10.7378 16.7759 8.23667 16.4604C7.92111 13.9593 7.92111 11.4348 8.23667 8.93369C10.7378 8.61813 13.2622 8.61813 15.7633 8.93369C16.0789 11.4348 16.0789 13.9593 15.7633 16.4604Z" fill="#333333"/>
</svg>
