<svg width="198" height="39" viewBox="0 0 198 39" fill="none" xmlns="http://www.w3.org/2000/svg">
<path d="M13.0256 38.0259H5.59359V19.4989H0.530762V13.4668H5.59339V9.17459C5.59339 4.08829 7.8326 0.44043 15.2445 0.44043C16.8121 0.44043 19.2732 0.7564 19.2732 0.7564V6.35748H16.6883C14.0544 6.35748 13.026 7.15865 13.026 9.3736V13.4668H19.1746L18.6271 19.4989H13.0258L13.0256 38.0259ZM30.0785 12.9848C29.9703 12.9848 29.8588 12.9887 29.7486 12.9915C22.8572 12.9915 19.7042 18.1752 19.7042 25.5337C19.7042 34.8033 23.794 38.5133 29.8024 38.5133C33.24 38.5133 35.4986 37.0664 36.8713 34.3662V38.0285H43.9402V13.4694H36.8713V17.2462C35.7504 14.8163 33.4288 13.0136 30.0785 12.9848ZM31.8759 18.788C34.7704 18.788 36.5076 20.8069 36.5076 24.241L36.5143 27.7484C36.5143 30.063 35.0794 32.7708 31.8759 32.7708C26.951 32.7708 27.0825 27.4529 27.0825 25.6818C27.0825 19.7239 29.7066 18.788 31.8759 18.788ZM46.795 25.7502C46.795 22.7659 46.6522 13.0007 59.3746 13.0007C64.4816 13.0007 66.6142 14.6246 66.6142 14.6246L64.9002 19.9407C64.9002 19.9407 62.7704 18.7679 59.9953 18.7679C56.441 18.7679 54.173 20.8284 54.173 24.4538L54.1769 27.0533C54.1769 30.5369 56.3652 32.8623 60.0026 32.8623C62.5308 32.8623 64.8609 31.6785 64.8609 31.6785L66.5706 36.8835C66.5706 36.8835 64.6207 38.5176 59.4103 38.5176C47.2966 38.5176 46.7952 29.7565 46.7952 25.7502H46.795ZM108.062 12.9915C114.953 12.9915 118.156 18.1752 118.156 25.5337C118.156 34.8033 114.066 38.5133 108.058 38.5133C104.62 38.5133 102.079 37.0666 100.706 34.3662V38.0285L93.7261 38.0257V1.18716L101.137 0.540822V16.9135C102.207 14.0491 105.722 12.9915 108.062 12.9915ZM105.984 18.788C103.09 18.788 101.137 20.8069 101.137 24.241L101.13 27.7484C101.126 30.063 102.482 32.7708 105.984 32.7708C110.909 32.7708 110.777 27.4529 110.777 25.6818C110.777 19.7239 108.154 18.788 105.984 18.788ZM79.4727 13.0118C71.6563 13.0118 67.5297 17.2735 67.5297 24.8469V26.254C67.5297 36.0836 73.3247 38.6143 80.2334 38.6143C86.9487 38.6143 89.9883 36.736 89.9883 36.736L88.6015 31.7341C88.6015 31.7341 85.026 33.2554 81.122 33.2554C77.0747 33.2554 75.3341 32.2239 74.888 28.3344H90.5808V24.3216C90.5808 16.1064 85.9495 13.0116 79.4725 13.0116L79.4727 13.0118ZM79.661 18.0204C82.3667 18.0204 84.1199 19.6795 84.0237 23.5274H74.9016C75.0598 19.4776 76.9504 18.0204 79.661 18.0204ZM132.933 12.9781C124.906 12.9781 120.68 17.5015 120.68 25.6076C120.68 36.7297 127.965 38.52 132.946 38.52C140.239 38.52 145.091 34.5936 145.091 25.7086C145.091 16.4608 139.636 12.9781 132.933 12.9781ZM132.832 18.8081C136.362 18.8081 137.76 21.4497 137.76 24.4566V27.0417C137.76 30.6842 135.803 32.7911 132.819 32.7911C130.027 32.7911 128.066 30.8203 128.066 27.0417V24.4566C128.066 20.4266 130.4 18.8081 132.832 18.8081ZM159.855 12.9781C151.828 12.9781 147.603 17.5015 147.603 25.6076C147.603 36.7297 154.887 38.52 159.869 38.52C167.161 38.52 172.014 34.5936 172.014 25.7086C172.014 16.4608 166.558 12.9781 159.855 12.9781ZM159.754 18.8081C163.284 18.8081 164.682 21.4497 164.682 24.4566V27.0417C164.682 30.6842 162.725 32.7911 159.741 32.7911C156.95 32.7911 154.988 30.8203 154.988 27.0417V24.4566C154.988 20.4266 157.322 18.8081 159.754 18.8081ZM174.814 38.0259V1.18716L182.247 0.54102V25.2327L189.62 13.467H197.47L189.777 25.6528L197.766 38.0259H189.894L182.247 26.0116V38.0259H174.814Z" fill="#606060"/>
</svg>
