<svg width="40" height="40" viewBox="0 0 40 40" fill="none" xmlns="http://www.w3.org/2000/svg">
<path d="M15.5334 22.1333H20.6834V34.1333C20.6834 35.9 22.8834 36.7333 24.0501 35.4L36.6667 21.0667C37.7667 19.8167 36.8834 17.8667 35.2167 17.8667H30.0667V5.86668C30.0667 4.10001 27.8667 3.26668 26.7001 4.60001L14.0834 18.9333C13.0001 20.1833 13.8834 22.1333 15.5334 22.1333Z" fill="white"/>
<path d="M14.1667 7.91669H2.5C1.81667 7.91669 1.25 7.35002 1.25 6.66669C1.25 5.98335 1.81667 5.41669 2.5 5.41669H14.1667C14.85 5.41669 15.4167 5.98335 15.4167 6.66669C15.4167 7.35002 14.85 7.91669 14.1667 7.91669Z" fill="white"/>
<path d="M12.5 34.5833H2.5C1.81667 34.5833 1.25 34.0166 1.25 33.3333C1.25 32.65 1.81667 32.0833 2.5 32.0833H12.5C13.1833 32.0833 13.75 32.65 13.75 33.3333C13.75 34.0166 13.1833 34.5833 12.5 34.5833Z" fill="white"/>
<path d="M7.5 21.25H2.5C1.81667 21.25 1.25 20.6833 1.25 20C1.25 19.3167 1.81667 18.75 2.5 18.75H7.5C8.18333 18.75 8.75 19.3167 8.75 20C8.75 20.6833 8.18333 21.25 7.5 21.25Z" fill="white"/>
</svg>
