<svg width="24" height="25" viewBox="0 0 24 25" fill="none" xmlns="http://www.w3.org/2000/svg">
<path d="M15.0002 23.447C14.7302 23.447 14.4802 23.297 14.3502 23.067C14.2202 22.837 14.2202 22.547 14.3602 22.317L15.4102 20.567C15.6202 20.207 16.0802 20.097 16.4402 20.307C16.8002 20.517 16.9102 20.977 16.7002 21.337L16.4302 21.787C19.1902 21.137 21.2602 18.657 21.2602 15.697C21.2602 15.287 21.6002 14.947 22.0102 14.947C22.4202 14.947 22.7602 15.287 22.7602 15.697C22.7502 19.967 19.2702 23.447 15.0002 23.447Z" fill="#333333"/>
<path d="M2 10.447C1.59 10.447 1.25 10.107 1.25 9.69702C1.25 5.42702 4.73 1.94702 9 1.94702C9.27 1.94702 9.52 2.09702 9.65 2.32702C9.78 2.55702 9.78 2.84702 9.64 3.07702L8.59 4.83702C8.38 5.18702 7.92 5.30702 7.56 5.08702C7.21 4.87702 7.09 4.41702 7.31 4.05702L7.58 3.60702C4.81 4.25702 2.75 6.73702 2.75 9.69702C2.75 10.107 2.41 10.447 2 10.447Z" fill="#333333"/>
<path d="M10.67 14.5469L7.52996 12.8569C7.19996 12.6769 6.79996 12.6769 6.46996 12.8569L3.32996 14.5469C3.09996 14.6669 2.95996 14.9169 2.95996 15.1869C2.95996 15.4569 3.09996 15.7069 3.32996 15.8269L6.46996 17.5169C6.63996 17.6069 6.81996 17.6469 6.99996 17.6469C7.17996 17.6469 7.35996 17.6069 7.52996 17.5169L10.67 15.8269C10.9 15.7069 11.04 15.4569 11.04 15.1869C11.04 14.9169 10.89 14.6769 10.67 14.5469Z" fill="#333333"/>
<path d="M5.95 18.1069L3.03 16.6469C2.81 16.5369 2.55 16.5469 2.33 16.6769C2.13 16.8069 2 17.0369 2 17.2869V20.0469C2 20.5269 2.26 20.9569 2.69 21.1669L5.61 22.6269C5.71 22.6669 5.82 22.6969 5.93 22.6969C6.06 22.6969 6.19 22.6569 6.31 22.5869C6.52 22.4569 6.65 22.2269 6.65 21.9769V19.2169C6.65 18.7469 6.38 18.3169 5.95 18.1069Z" fill="#333333"/>
<path d="M11.6596 16.6769C11.4496 16.5469 11.1896 16.5369 10.9596 16.6469L8.03961 18.1069C7.60961 18.3169 7.34961 18.7469 7.34961 19.2269V21.9869C7.34961 22.2369 7.47961 22.4669 7.68961 22.5969C7.80961 22.6569 7.93961 22.6969 8.06961 22.6969C8.17961 22.6969 8.28961 22.6669 8.38961 22.6169L11.3096 21.1569C11.7396 20.9469 11.9996 20.5169 11.9996 20.0369V17.2769C11.9996 17.0369 11.8696 16.8069 11.6596 16.6769Z" fill="#333333"/>
<path d="M20.67 4.5269L17.53 2.8369C17.2 2.6569 16.8 2.6569 16.47 2.8369L13.33 4.5269C13.1 4.6469 12.96 4.8969 12.96 5.1669C12.96 5.4369 13.1 5.6869 13.33 5.8069L16.47 7.4969C16.64 7.5869 16.82 7.6269 17 7.6269C17.18 7.6269 17.36 7.5869 17.53 7.4969L20.67 5.8069C20.9 5.6869 21.04 5.4369 21.04 5.1669C21.04 4.8869 20.89 4.6469 20.67 4.5269Z" fill="#333333"/>
<path d="M15.95 8.07713L13.03 6.61713C12.81 6.50713 12.55 6.51713 12.33 6.64713C12.13 6.77713 12 7.00713 12 7.25713V10.0171C12 10.4971 12.26 10.9271 12.69 11.1371L15.61 12.5971C15.71 12.6471 15.82 12.6771 15.93 12.6771C16.06 12.6771 16.19 12.6371 16.31 12.5671C16.52 12.4371 16.65 12.2071 16.65 11.9571V9.19713C16.65 8.71713 16.38 8.28713 15.95 8.07713Z" fill="#333333"/>
<path d="M21.6596 6.64713C21.4496 6.51713 21.1896 6.50713 20.9596 6.61713L18.0396 8.07713C17.6096 8.28713 17.3496 8.71713 17.3496 9.19713V11.9571C17.3496 12.2071 17.4796 12.4371 17.6896 12.5671C17.8096 12.6371 17.9396 12.6771 18.0696 12.6771C18.1796 12.6771 18.2896 12.6471 18.3896 12.5971L21.3096 11.1371C21.7396 10.9171 21.9996 10.4871 21.9996 10.0171V7.25713C21.9996 7.00713 21.8696 6.77713 21.6596 6.64713Z" fill="#333333"/>
</svg>
