<svg width="198" height="65" viewBox="0 0 198 65" fill="none" xmlns="http://www.w3.org/2000/svg">
<path d="M85.1727 34.2324C85.1727 43.5734 77.8653 50.4565 68.8974 50.4565C59.9295 50.4565 52.6221 43.5734 52.6221 34.2324C52.6221 24.8256 59.9295 18.0083 68.8974 18.0083C77.8653 18.0083 85.1727 24.8256 85.1727 34.2324ZM78.0482 34.2324C78.0482 28.3952 73.8129 24.4014 68.8974 24.4014C63.9819 24.4014 59.7466 28.3952 59.7466 34.2324C59.7466 40.0111 63.9819 44.0634 68.8974 44.0634C73.8129 44.0634 78.0482 40.0038 78.0482 34.2324Z" fill="#606060"/>
<path d="M120.279 34.2324C120.279 43.5734 112.971 50.4565 104.003 50.4565C95.0355 50.4565 87.728 43.5734 87.728 34.2324C87.728 24.833 95.0355 18.0083 104.003 18.0083C112.971 18.0083 120.279 24.8256 120.279 34.2324ZM113.154 34.2324C113.154 28.3952 108.919 24.4014 104.003 24.4014C99.0878 24.4014 94.8526 28.3952 94.8526 34.2324C94.8526 40.0111 99.0878 44.0634 104.003 44.0634C108.919 44.0634 113.154 40.0038 113.154 34.2324Z" fill="#606060"/>
<path d="M153.927 18.9885V48.1158C153.927 60.0974 146.861 64.991 138.508 64.991C130.644 64.991 125.912 59.7317 124.127 55.4306L130.33 52.8485C131.434 55.4891 134.141 58.6052 138.5 58.6052C143.847 58.6052 147.161 55.3062 147.161 49.096V46.7626H146.912C145.318 48.7303 142.245 50.4492 138.369 50.4492C130.256 50.4492 122.825 43.3832 122.825 34.2909C122.825 25.1329 130.256 18.0083 138.369 18.0083C142.238 18.0083 145.31 19.7273 146.912 21.6364H147.161V18.9958H153.927V18.9885ZM147.666 34.2909C147.666 28.5781 143.855 24.4014 139.005 24.4014C134.089 24.4014 129.971 28.5781 129.971 34.2909C129.971 39.9452 134.089 44.0635 139.005 44.0635C143.855 44.0635 147.666 39.9452 147.666 34.2909Z" fill="#606060"/>
<path d="M165.085 1.91577V49.4617H158.136V1.91577H165.085Z" fill="#606060"/>
<path d="M192.162 39.5702L197.692 43.2569C195.907 45.8975 191.606 50.4473 184.174 50.4473C174.957 50.4473 168.074 43.3227 168.074 34.2231C168.074 24.575 175.016 17.999 183.377 17.999C191.796 17.999 195.914 24.6993 197.26 28.3201L197.999 30.1635L176.311 39.146C177.971 42.401 180.553 44.0615 184.174 44.0615C187.802 44.0615 190.318 42.2767 192.162 39.5702ZM175.14 33.7331L189.638 27.713C188.841 25.6868 186.442 24.2751 183.618 24.2751C179.997 24.2751 174.957 27.4716 175.14 33.7331Z" fill="#606060"/>
<path d="M26.3161 30.0101V23.1269H49.5111C49.7379 24.3265 49.8549 25.7456 49.8549 27.2817C49.8549 32.4459 48.4432 38.8317 43.8934 43.3814C39.468 47.9897 33.8137 50.4475 26.3234 50.4475C12.44 50.4475 0.765625 39.1389 0.765625 25.2555C0.765625 11.3721 12.44 0.0634766 26.3234 0.0634766C34.0039 0.0634766 39.4753 3.07715 43.5862 7.00518L38.7292 11.8622C35.7813 9.09719 31.7875 6.94666 26.3161 6.94666C16.1778 6.94666 8.24862 15.1172 8.24862 25.2555C8.24862 35.3937 16.1778 43.5643 26.3161 43.5643C32.892 43.5643 36.6372 40.9237 39.0364 38.5244C40.9821 36.5787 42.2622 33.7991 42.7669 30.0028L26.3161 30.0101Z" fill="#606060"/>
</svg>
