<svg width="571" height="571" viewBox="0 0 571 571" fill="none" xmlns="http://www.w3.org/2000/svg">
<path d="M236.489 570.886C147.162 570.886 63.1767 536.091 0 472.935L3.02477 469.911C131.759 598.645 341.197 598.645 469.932 469.911C532.294 407.549 566.639 324.636 566.639 236.468C566.639 148.299 532.294 65.3649 469.932 3.02477L472.957 0C536.134 63.1768 570.907 147.162 570.907 236.489C570.907 325.816 536.112 409.802 472.957 472.978C409.801 536.112 325.816 570.886 236.489 570.886Z" fill="#156064" fill-opacity="0.1"/>
<path d="M236.489 547.739C156.73 547.739 76.992 517.384 16.2822 456.674L19.307 453.65C139.053 573.396 333.904 573.396 453.671 453.65C573.417 333.903 573.417 139.032 453.671 19.2854L456.696 16.2606C578.115 137.68 578.115 335.255 456.696 456.696C395.986 517.384 316.227 547.739 236.489 547.739Z" fill="#156064" fill-opacity="0.1"/>
<path d="M236.489 524.871C159.454 524.871 87.0318 494.86 32.5432 440.392L35.568 437.368C89.2414 491.041 160.591 520.581 236.468 520.581C312.366 520.581 383.716 491.02 437.368 437.368C491.041 383.694 520.581 312.344 520.581 236.468C520.581 160.57 491.02 89.2198 437.368 35.5679L440.393 32.5431C494.86 87.0102 524.871 159.454 524.871 236.489C524.871 313.524 494.86 385.947 440.393 440.435C385.947 494.86 313.524 524.871 236.489 524.871Z" fill="#156064" fill-opacity="0.1"/>
<path d="M236.489 501.724C168.529 501.724 100.568 475.853 48.8252 424.11L51.85 421.085C153.662 522.898 319.316 522.898 421.128 421.085C522.94 319.273 522.94 153.619 421.128 51.8071L424.153 48.7823C527.638 152.268 527.638 320.646 424.153 424.11C372.41 475.853 304.45 501.724 236.489 501.724Z" fill="#156064" fill-opacity="0.1"/>
<path d="M236.489 478.727C174.428 478.727 112.345 455.108 65.0859 407.849L68.1107 404.824C160.956 497.67 312.001 497.67 404.824 404.824C497.67 311.979 497.67 160.934 404.824 68.1106L407.849 65.0858C502.346 159.583 502.346 313.374 407.849 407.871C360.633 455.108 298.55 478.727 236.489 478.727Z" fill="#156064" fill-opacity="0.1"/>
<path d="M236.489 455.731C180.306 455.731 124.122 434.343 81.3682 391.589L84.3929 388.564C168.25 472.421 304.707 472.421 388.564 388.564C429.194 347.933 451.569 293.917 451.569 236.468C451.569 179.019 429.194 125.002 388.564 84.3716L391.589 81.3468C433.034 122.771 455.838 177.882 455.838 236.468C455.838 295.054 433.013 350.164 391.589 391.589C348.834 434.343 292.672 455.731 236.489 455.731Z" fill="#156064" fill-opacity="0.1"/>
<path d="M236.489 432.734C186.205 432.734 135.921 413.599 97.6289 375.306L100.654 372.282C175.543 447.171 297.392 447.171 372.281 372.282C447.171 297.392 447.171 175.543 372.281 100.654L375.306 97.629C451.869 174.192 451.869 298.765 375.306 375.328C337.057 413.577 286.773 432.734 236.489 432.734Z" fill="#156064" fill-opacity="0.1"/>
</svg>
