<svg width="25" height="26" viewBox="0 0 25 26" fill="none" xmlns="http://www.w3.org/2000/svg">
<g clip-path="url(#clip0_17100_2412)">
<path d="M19.948 0.897705H5.049C4.38584 0.897574 3.72914 1.02811 3.11645 1.28187C2.50375 1.53562 1.94705 1.90761 1.47817 2.37658C1.00929 2.84556 0.637409 3.40233 0.383778 4.01507C0.130148 4.62782 -0.000261865 5.28454 8.91936e-07 5.94771V20.8477C-0.000393376 21.5109 0.129927 22.1677 0.383511 22.7805C0.637095 23.3933 1.00897 23.9501 1.47788 24.4191C1.94679 24.8881 2.50353 25.2601 3.11629 25.5138C3.72905 25.7675 4.3858 25.898 5.049 25.8977H19.949C20.6123 25.8978 21.269 25.7673 21.8819 25.5136C22.4947 25.2599 23.0515 24.8879 23.5205 24.4189C23.9896 23.95 24.3616 23.3932 24.6155 22.7805C24.8693 22.1677 25 21.511 25 20.8477V5.94771C24.9995 4.60818 24.467 3.3237 23.5196 2.37669C22.5722 1.42969 21.2875 0.897705 19.948 0.897705Z" fill="url(#paint0_linear_17100_2412)"/>
<path d="M12.3849 7.0387L12.8699 6.2187C13.0174 5.97125 13.2562 5.79157 13.5348 5.71827C13.8134 5.64497 14.1096 5.6839 14.3599 5.8267C14.4833 5.89478 14.5917 5.98691 14.6789 6.09762C14.7661 6.20833 14.8303 6.33537 14.8676 6.47128C14.9049 6.60718 14.9145 6.74919 14.896 6.88889C14.8775 7.0286 14.8312 7.16319 14.7599 7.28471L10.0899 15.1967H13.4679C13.7129 15.2077 13.9513 15.2802 14.161 15.4076C14.3707 15.5349 14.545 15.7129 14.6678 15.9253C14.7906 16.1377 14.858 16.3775 14.8638 16.6228C14.8696 16.868 14.8135 17.1108 14.7009 17.3287H4.80087C4.51814 17.3287 4.247 17.2164 4.04709 17.0165C3.84717 16.8166 3.73486 16.5454 3.73486 16.2627C3.73486 15.98 3.84717 15.7088 4.04709 15.5089C4.247 15.309 4.51814 15.1967 4.80087 15.1967H7.57787L11.1319 9.1677L10.0219 7.2817C9.95063 7.16015 9.90444 7.02556 9.88602 6.88589C9.86759 6.74621 9.8773 6.60426 9.91457 6.46839C9.95185 6.33252 10.0159 6.2055 10.1031 6.09478C10.1902 5.98406 10.2986 5.89189 10.4219 5.82371C10.6721 5.68091 10.9683 5.64198 11.247 5.71528C11.5256 5.78858 11.7643 5.96826 11.9119 6.21571L12.3879 7.0387H12.3849ZM8.18487 18.4267L7.13786 20.2047C6.99031 20.4521 6.75157 20.6318 6.47295 20.7051C6.19434 20.7784 5.89808 20.7395 5.64787 20.5967C5.52448 20.5286 5.41598 20.4365 5.32878 20.3258C5.24158 20.2151 5.17744 20.088 5.14016 19.9521C5.10287 19.8162 5.0932 19.6742 5.11169 19.5345C5.13019 19.3948 5.17649 19.2602 5.24786 19.1387L6.02586 17.8207C6.4034 17.6776 6.81684 17.6593 7.20557 17.7683C7.59429 17.8774 7.93785 18.1081 8.18587 18.4267H8.18487ZM17.2029 15.2027H20.0359C20.3186 15.2027 20.5897 15.315 20.7896 15.5149C20.9896 15.7148 21.1019 15.986 21.1019 16.2687C21.1019 16.5514 20.9896 16.8226 20.7896 17.0225C20.5897 17.2224 20.3186 17.3347 20.0359 17.3347H18.4619L19.5239 19.1347C19.5951 19.2562 19.6413 19.3908 19.6597 19.5305C19.6781 19.6702 19.6684 19.8121 19.6311 19.948C19.5939 20.0839 19.5298 20.2109 19.4427 20.3216C19.3556 20.4324 19.2472 20.5245 19.1239 20.5927C18.8736 20.7355 18.5774 20.7744 18.2988 20.7011C18.0202 20.6278 17.7814 20.4482 17.6339 20.2007C15.8445 17.164 14.5032 14.8897 13.6099 13.3777C13.2531 12.8221 13.0966 12.1614 13.1662 11.5048C13.2359 10.8482 13.5275 10.2351 13.9929 9.7667C14.7082 10.9667 15.7782 12.7774 17.2029 15.1987V15.2027Z" fill="white"/>
</g>
<defs>
<linearGradient id="paint0_linear_17100_2412" x1="12.5" y1="25.8477" x2="12.5" y2="0.847706" gradientUnits="userSpaceOnUse">
<stop stop-color="#18BFFB"/>
<stop offset="1" stop-color="#2072F3"/>
</linearGradient>
<clipPath id="clip0_17100_2412">
<rect width="25" height="25" fill="white" transform="translate(0 0.897705)"/>
</clipPath>
</defs>
</svg>
