<svg width="198" height="51" viewBox="0 0 198 51" fill="none" xmlns="http://www.w3.org/2000/svg">
<path d="M44.5568 46.6296L42.2321 40.3105C42.2321 40.3105 38.4544 44.5236 32.7895 44.5236C27.7769 44.5236 24.218 40.1652 24.218 33.1918C24.218 24.2574 28.7211 21.0613 33.1527 21.0613C39.5445 21.0613 41.5781 25.2016 43.3218 30.5045L45.6466 37.7684C47.9705 44.8139 52.3289 50.4796 64.8952 50.4796C73.9031 50.4796 80.0044 47.7197 80.0044 40.456C80.0044 34.5723 76.6625 31.5213 70.4154 30.0684L65.7667 29.0516C62.571 28.3253 61.6268 27.0176 61.6268 24.8384C61.6268 22.3687 63.5875 20.9158 66.7841 20.9158C70.2707 20.9158 72.1591 22.2234 72.4499 25.3468L79.7135 24.475C79.1325 17.9376 74.6291 15.25 67.2199 15.25C60.6829 15.25 54.2905 17.7197 54.2905 25.6374C54.2905 30.5768 56.6876 33.7005 62.716 35.1531L67.656 36.3149C71.3604 37.1868 72.5949 38.712 72.5949 40.8189C72.5949 43.506 69.9802 44.5957 65.0407 44.5957C57.7041 44.5957 54.6539 40.746 52.9102 35.4431L50.5131 28.1797C47.4629 18.7366 42.5955 15.25 32.9345 15.25C22.2569 15.25 16.5909 22.0052 16.5909 33.482C16.5909 44.5233 22.2569 50.4794 32.4266 50.4794C40.6337 50.4794 44.5568 46.6296 44.5568 46.6296ZM13.4716 43.2154C12.7453 43.4336 12.0187 43.5789 11.0745 43.5789C9.33111 43.5789 8.09611 42.7802 8.09611 40.6731V1.08337H0.46875V42.4891C0.46875 47.937 4.24639 50.1897 8.67716 50.1897C10.1301 50.1897 11.5103 49.9712 13.2537 49.536L13.4716 43.2154ZM105.355 42.0533C103.467 43.3615 101.869 44.0155 99.6896 44.0155C96.929 44.0155 95.4038 42.5626 95.4038 39.0031V22.0041H105.428V16.0481H95.4761V7.98414L87.7764 8.92862V16.0478H82.9093V22.0039H87.7764V40.6002C87.7764 47.2844 91.6261 50.4791 97.8735 50.4791C101.288 50.4791 104.338 49.8262 106.736 48.4462L105.355 42.0533ZM111.98 44.668C111.98 47.647 114.305 50.0438 117.283 50.0438C120.407 50.0438 122.731 47.647 122.731 44.668C122.731 41.6173 120.407 39.2936 117.283 39.2936C114.305 39.2936 111.98 41.6173 111.98 44.668ZM130.628 22.0041V49.6081H138.255V22.0041H146.827V16.0481H138.255V12.9968C138.255 8.42076 140.216 6.96786 143.413 6.96786C145.664 6.96786 147.19 7.47572 148.933 8.42076L150.168 2.02757C148.134 1.08337 145.737 0.574951 142.831 0.574951C136.439 0.574951 130.628 3.62573 130.628 12.706V16.0481H125.761V22.0041H130.628ZM177.219 22.6587C176.347 17.2105 172.788 15.2483 168.139 15.2483C163.49 15.2483 159.495 17.3552 157.751 22.5126L156.807 16.0481H150.632V49.6081H158.26V30.6492C158.26 24.1833 161.601 21.7136 165.161 21.7136C168.865 21.7136 170.391 24.1833 170.391 28.1786V49.6078H177.945V30.5763C177.945 24.1831 181.36 21.7133 184.919 21.7133C188.551 21.7133 190.076 24.1831 190.076 28.1783V49.6075H197.704V25.4918C197.704 18.3002 193.491 15.2483 187.897 15.2483C183.176 15.2483 178.962 17.3552 177.219 22.6587Z" fill="#606060"/>
</svg>
