<svg width="25" height="24" viewBox="0 0 25 24" fill="none" xmlns="http://www.w3.org/2000/svg">
<path d="M12.3936 2.00024C6.87355 2.00024 2.39355 6.48024 2.39355 12.0002C2.39355 17.5202 6.87355 22.0002 12.3936 22.0002C17.9136 22.0002 22.3936 17.5202 22.3936 12.0002C22.3936 6.48024 17.9136 2.00024 12.3936 2.00024ZM7.39355 12.7502H5.39355C4.98355 12.7502 4.64355 12.4102 4.64355 12.0002C4.64355 11.5902 4.98355 11.2502 5.39355 11.2502H7.39355C7.80355 11.2502 8.14355 11.5902 8.14355 12.0002C8.14355 12.4102 7.80355 12.7502 7.39355 12.7502ZM12.3936 14.2502C11.1536 14.2502 10.1436 13.2402 10.1436 12.0002C10.1436 10.7602 11.1536 9.75024 12.3936 9.75024C13.6336 9.75024 14.6436 10.7602 14.6436 12.0002C14.6436 13.2402 13.6336 14.2502 12.3936 14.2502ZM19.3936 12.7502H17.3936C16.9836 12.7502 16.6436 12.4102 16.6436 12.0002C16.6436 11.5902 16.9836 11.2502 17.3936 11.2502H19.3936C19.8036 11.2502 20.1436 11.5902 20.1436 12.0002C20.1436 12.4102 19.8036 12.7502 19.3936 12.7502Z" fill="#333333"/>
</svg>
