<svg width="41" height="40" viewBox="0 0 41 40" fill="none" xmlns="http://www.w3.org/2000/svg">
<path d="M34.4222 14.0834C32.6722 6.38341 25.9556 2.91675 20.0556 2.91675C20.0556 2.91675 20.0556 2.91675 20.0389 2.91675C14.1556 2.91675 7.42225 6.36675 5.67225 14.0667C3.72225 22.6667 8.98891 29.9501 13.7556 34.5334C15.5222 36.2334 17.7889 37.0834 20.0556 37.0834C22.3222 37.0834 24.5889 36.2334 26.3389 34.5334C31.1056 29.9501 36.3722 22.6834 34.4222 14.0834ZM20.0556 22.4334C17.1556 22.4334 14.8056 20.0834 14.8056 17.1834C14.8056 14.2834 17.1556 11.9334 20.0556 11.9334C22.9556 11.9334 25.3056 14.2834 25.3056 17.1834C25.3056 20.0834 22.9556 22.4334 20.0556 22.4334Z" fill="#F4C418"/>
</svg>
