<svg width="51" height="69" viewBox="0 0 51 69" fill="none" xmlns="http://www.w3.org/2000/svg">
<path fill-rule="evenodd" clip-rule="evenodd" d="M3.3024 68.1143H28.1669C42.0542 68.1143 50.0554 61.4006 50.0554 49.9046C50.0554 42.0873 46.4686 36.7531 39.3871 34.4539C45.7329 31.7868 49.0438 26.4527 49.0438 19.0032C49.0438 7.78312 40.9505 0.885498 27.7071 0.885498H3.83274C10.5092 2.589 16.02 6.20117 19.7733 11.2779H26.6955C33.3172 11.2779 36.9959 14.4048 36.9959 20.1988C36.9959 26.1768 33.4091 29.5796 26.9714 29.5796H12.7163V23.5097H12.3871C10.6876 17.7314 6.57622 13.7119 0.944336 12.0081V57.0131C6.75806 55.3147 11.0422 51.2922 12.7163 45.8027V39.5122H27.7071C34.2369 39.5122 38.0076 42.7311 38.0076 48.4331C38.0076 54.503 34.3288 57.7219 27.7071 57.7219H19.6669C15.7518 62.7734 10.0749 66.4033 3.3024 68.1143Z" fill="#156064"/>
</svg>
