<svg width="186" height="44" viewBox="0 0 186 44" fill="none" xmlns="http://www.w3.org/2000/svg">
<rect x="6.9751" y="11.0388" width="23.1532" height="2.48057" rx="1.24028" fill="#156064"/>
<rect x="3.01904" y="17.5193" width="31.0655" height="2.48057" rx="1.24028" fill="#156064"/>
<rect x="3.01904" y="24" width="31.0655" height="2.48057" rx="1.24028" fill="#156064"/>
<rect x="6.9751" y="30.4805" width="23.1532" height="2.48057" rx="1.24028" fill="#156064"/>
<path d="M57.4103 33.4352C51.492 33.4352 46.8211 28.6773 46.8211 22.5559C46.8211 16.4635 51.492 11.7346 57.4103 11.7346C63.1255 11.7346 67.5353 15.5351 68.2026 21.0473H62.4003C61.9651 18.4362 60.0213 16.6375 57.4683 16.6375C54.3931 16.6375 52.4493 19.0165 52.4493 22.5559C52.4493 26.1243 54.3931 28.5322 57.4683 28.5322C59.9923 28.5322 61.9361 26.7335 62.4003 24.0935H68.2026C67.5063 29.6637 63.1255 33.4352 57.4103 33.4352ZM75.5996 25.8052V33H70.6386V17.3918H75.1934V20.1479C76.3829 18.3202 78.8489 17.2758 81.3438 17.2758V22.4398C77.8335 22.0917 75.5996 22.3528 75.5996 25.8052ZM90.1543 33.2611C85.3384 33.2611 82.1181 30.0118 82.1181 25.1669C82.1181 20.4961 85.4834 17.1017 90.1252 17.1017C95.2893 17.1017 98.7416 21.3084 97.8423 26.4434H87.2531C87.5142 28.4162 88.4426 29.4026 90.0382 29.4026C91.4308 29.4026 92.3591 28.8224 92.7943 27.6909H97.7553C96.7979 31.2593 94.0418 33.2611 90.1543 33.2611ZM90.0092 20.7572C88.5296 20.7572 87.6593 21.5985 87.3111 23.3392H92.5332C92.4752 21.7726 91.4888 20.7572 90.0092 20.7572ZM98.9753 25.1959C98.9753 20.6701 101.731 17.1017 105.938 17.1017C107.563 17.1017 108.955 17.682 110.174 18.8424V12.1698H115.135V33H110.58V31.2303C109.303 32.5648 107.766 33.2901 105.938 33.2901C101.731 33.2901 98.9753 29.6637 98.9753 25.1959ZM104.139 25.1959C104.139 27.6329 105.619 28.8224 107.128 28.8224C108.665 28.8224 110.116 27.6329 110.116 25.1669C110.116 22.6719 108.636 21.5695 107.128 21.5695C105.619 21.5695 104.139 22.7009 104.139 25.1959ZM134.537 25.1959C134.537 29.6637 131.78 33.2901 127.574 33.2901C125.746 33.2901 124.208 32.5648 122.932 31.2303V33H118.377V12.1698H123.338V18.8424C124.557 17.682 125.949 17.1017 127.574 17.1017C131.78 17.1017 134.537 20.6701 134.537 25.1959ZM129.373 25.1959C129.373 22.7009 127.893 21.5695 126.384 21.5695C124.876 21.5695 123.396 22.6719 123.396 25.1669C123.396 27.6329 124.847 28.8224 126.384 28.8224C127.893 28.8224 129.373 27.6329 129.373 25.1959ZM143.842 33.2611C139.027 33.2611 135.806 30.0118 135.806 25.1669C135.806 20.4961 139.172 17.1017 143.813 17.1017C148.977 17.1017 152.43 21.3084 151.53 26.4434H140.941C141.202 28.4162 142.131 29.4026 143.726 29.4026C145.119 29.4026 146.047 28.8224 146.482 27.6909H151.443C150.486 31.2593 147.73 33.2611 143.842 33.2611ZM143.697 20.7572C142.218 20.7572 141.347 21.5985 140.999 23.3392H146.221C146.163 21.7726 145.177 20.7572 143.697 20.7572ZM168.366 17.3918L162.766 33H157.254L151.597 17.3918H156.993L160.126 27.3718L163.318 17.3918H168.366ZM185.138 17.3918L177.711 38.5992H172.286L174.462 32.8259L168.369 17.3918H173.765L177.131 27.0527L180.148 17.3918H185.138Z" fill="#333333"/>
</svg>
