<svg width="24" height="25" viewBox="0 0 24 25" fill="none" xmlns="http://www.w3.org/2000/svg">
<path d="M17 3.12695H7C4 3.12695 2 5.12695 2 8.12695V14.127C2 17.127 4 19.127 7 19.127V21.257C7 22.057 7.89 22.537 8.55 22.087L13 19.127H17C20 19.127 22 17.127 22 14.127V8.12695C22 5.12695 20 3.12695 17 3.12695ZM12 15.297C11.58 15.297 11.25 14.957 11.25 14.547C11.25 14.137 11.58 13.797 12 13.797C12.42 13.797 12.75 14.137 12.75 14.547C12.75 14.957 12.42 15.297 12 15.297ZM13.26 11.147C12.87 11.407 12.75 11.577 12.75 11.857V12.067C12.75 12.477 12.41 12.817 12 12.817C11.59 12.817 11.25 12.477 11.25 12.067V11.857C11.25 10.697 12.1 10.127 12.42 9.90695C12.79 9.65695 12.91 9.48695 12.91 9.22695C12.91 8.72695 12.5 8.31695 12 8.31695C11.5 8.31695 11.09 8.72695 11.09 9.22695C11.09 9.63695 10.75 9.97695 10.34 9.97695C9.93 9.97695 9.59 9.63695 9.59 9.22695C9.59 7.89695 10.67 6.81695 12 6.81695C13.33 6.81695 14.41 7.89695 14.41 9.22695C14.41 10.367 13.57 10.937 13.26 11.147Z" fill="#333333"/>
</svg>
