<svg width="398" height="93" viewBox="0 0 398 93" fill="none" xmlns="http://www.w3.org/2000/svg">
<rect x="15.6802" y="23.0315" width="49.5736" height="5.31118" rx="2.65559" fill="#156064"/>
<rect x="7.20947" y="36.9072" width="66.5149" height="5.31118" rx="2.65559" fill="#156064"/>
<rect x="7.20947" y="50.783" width="66.5149" height="5.31118" rx="2.65559" fill="#156064"/>
<rect x="15.6802" y="64.6584" width="49.5736" height="5.31118" rx="2.65559" fill="#156064"/>
<path d="M123.667 70.9318C110.995 70.9318 100.994 60.7446 100.994 47.6379C100.994 34.5934 110.995 24.4683 123.667 24.4683C135.904 24.4683 145.346 32.6056 146.774 44.4078H134.351C133.419 38.8173 129.257 34.9661 123.791 34.9661C117.207 34.9661 113.045 40.0597 113.045 47.6379C113.045 55.2783 117.207 60.434 123.791 60.434C129.195 60.434 133.357 56.5828 134.351 50.9301H146.774C145.283 62.8566 135.904 70.9318 123.667 70.9318ZM162.612 54.595V70H151.99V36.5811H161.743V42.4822C164.289 38.5689 169.569 36.3326 174.911 36.3326V47.3895C167.395 46.6441 162.612 47.2031 162.612 54.595ZM193.775 70.5591C183.464 70.5591 176.569 63.602 176.569 53.2284C176.569 43.2276 183.775 35.9599 193.713 35.9599C204.77 35.9599 212.162 44.9669 210.236 55.9616H187.564C188.123 60.1855 190.111 62.2975 193.527 62.2975C196.509 62.2975 198.496 61.0552 199.428 58.6326H210.05C208 66.273 202.099 70.5591 193.775 70.5591ZM193.465 43.7867C190.297 43.7867 188.433 45.5881 187.688 49.3151H198.869C198.745 45.9608 196.633 43.7867 193.465 43.7867ZM212.662 53.2906C212.662 43.6003 218.563 35.9599 227.57 35.9599C231.049 35.9599 234.031 37.2023 236.639 39.687V25.4001H247.261V70H237.509V66.2109C234.776 69.0682 231.484 70.6212 227.57 70.6212C218.563 70.6212 212.662 62.8566 212.662 53.2906ZM223.719 53.2906C223.719 58.5084 226.887 61.0552 230.117 61.0552C233.409 61.0552 236.515 58.5084 236.515 53.2284C236.515 47.8864 233.347 45.5259 230.117 45.5259C226.887 45.5259 223.719 47.9485 223.719 53.2906ZM288.803 53.2906C288.803 62.8566 282.902 70.6212 273.895 70.6212C269.982 70.6212 266.689 69.0682 263.956 66.2109V70H254.204V25.4001H264.826V39.687C267.435 37.2023 270.417 35.9599 273.895 35.9599C282.902 35.9599 288.803 43.6003 288.803 53.2906ZM277.746 53.2906C277.746 47.9485 274.578 45.5259 271.348 45.5259C268.118 45.5259 264.95 47.8864 264.95 53.2284C264.95 58.5084 268.056 61.0552 271.348 61.0552C274.578 61.0552 277.746 58.5084 277.746 53.2906ZM308.728 70.5591C298.417 70.5591 291.522 63.602 291.522 53.2284C291.522 43.2276 298.727 35.9599 308.666 35.9599C319.723 35.9599 327.115 44.9669 325.189 55.9616H302.516C303.075 60.1855 305.063 62.2975 308.48 62.2975C311.461 62.2975 313.449 61.0552 314.381 58.6326H325.003C322.953 66.273 317.052 70.5591 308.728 70.5591ZM308.417 43.7867C305.25 43.7867 303.386 45.5881 302.641 49.3151H313.822C313.697 45.9608 311.585 43.7867 308.417 43.7867ZM361.235 36.5811L349.246 70H337.444L325.331 36.5811H336.885L343.594 57.9493L350.426 36.5811H361.235ZM397.146 36.5811L381.244 81.9886H369.628L374.287 69.6273L361.243 36.5811H372.796L380.002 57.266L386.462 36.5811H397.146Z" fill="#333333"/>
</svg>
