<svg width="198" height="55" viewBox="0 0 198 55" fill="none" xmlns="http://www.w3.org/2000/svg">
<path d="M27.1194 50.7433C24.1524 51.2644 21.1332 51.4206 18.01 51.8366L8.48379 23.9356V53.0341C5.51679 53.3463 2.81001 53.7627 -0.000976562 54.1792V0.875244H7.91154L18.7387 31.1194V0.875244H27.1194V50.7433ZM43.5167 20.3957C46.7443 20.3957 51.6894 20.2395 54.6564 20.2395V28.5681C50.9604 28.5681 46.6401 28.5681 43.5167 28.7243V41.1135C48.41 40.8013 53.3031 40.3845 58.2481 40.2282V48.2442L35.1878 50.0665V0.875244H58.2481V9.20399H43.5167V20.3957ZM89.2205 9.20418H80.5795V47.5163C77.7685 47.5163 74.9576 47.5163 72.2512 47.6201V9.20418H63.6102V0.875244H89.2209L89.2205 9.20418ZM102.755 19.8233H114.155V28.1518H102.755V47.0479H94.5815V0.875244H117.851V9.20399H102.755V19.8233ZM131.385 39.76C136.122 39.8638 140.911 40.2288 145.544 40.4887V48.7134C138.1 48.2446 130.656 47.7767 123.056 47.6201V0.875244H131.385V39.76ZM152.571 49.286C155.226 49.4424 158.037 49.5986 160.743 49.9105V0.875244H152.571V49.286ZM197.234 0.875244L186.667 26.2259L197.234 54.1792C194.11 53.7627 190.987 53.1901 187.864 52.6695L181.878 37.2616L175.788 51.4206C172.768 50.8995 169.853 50.7433 166.835 50.3269L177.558 25.9133L167.875 0.875244H176.828L182.294 14.878L188.124 0.875244H197.234Z" fill="#606060"/>
</svg>
