<svg width="129" height="36" viewBox="0 0 129 36" fill="none" xmlns="http://www.w3.org/2000/svg">
<path d="M18.3816 33.2592C16.4528 33.5979 14.4901 33.6995 12.4598 33.9699L6.26714 15.8323V34.7484C4.33839 34.9513 2.5788 35.222 0.751465 35.4927V0.841553H5.89514L12.9335 20.5023V0.841553H18.3816V33.2592ZM29.0409 13.5312C31.1391 13.5312 34.3538 13.4297 36.2825 13.4297V18.8438C33.8798 18.8438 31.0713 18.8438 29.0409 18.9453V26.9992C32.2219 26.7962 35.4028 26.5252 38.6173 26.4237V31.6346L23.6265 32.8192V0.841553H38.6173V6.25581H29.0409V13.5312ZM58.7515 6.25593H53.1343V31.1614C51.307 31.1614 49.4796 31.1614 47.7203 31.2289V6.25593H42.1031V0.841553H58.7518L58.7515 6.25593ZM67.5496 13.1591H74.9605V18.5732H67.5496V30.8569H62.2365V0.841553H77.363V6.25581H67.5496V13.1591ZM86.1611 26.1193C89.2406 26.1868 92.3536 26.4241 95.3654 26.593V31.9396C90.5265 31.6349 85.6874 31.3307 80.747 31.2289V0.841553H86.1611V26.1193ZM99.9336 32.3119C101.659 32.4135 103.487 32.5151 105.246 32.7178V0.841553H99.9336V32.3119ZM128.968 0.841553L122.098 17.3212L128.968 35.4927C126.937 35.222 124.907 34.8498 122.876 34.5113L118.985 24.4952L115.026 33.6995C113.063 33.3608 111.168 33.2592 109.206 32.9885L116.177 17.118L109.882 0.841553H115.703L119.256 9.94428L123.046 0.841553H128.968Z" fill="#606060"/>
</svg>
