<svg width="24" height="25" viewBox="0 0 24 25" fill="none" xmlns="http://www.w3.org/2000/svg">
<path d="M9 2.69702C6.38 2.69702 4.25 4.82702 4.25 7.44702C4.25 10.017 6.26 12.097 8.88 12.187C8.96 12.177 9.04 12.177 9.1 12.187C9.12 12.187 9.13 12.187 9.15 12.187C9.16 12.187 9.16 12.187 9.17 12.187C11.73 12.097 13.74 10.017 13.75 7.44702C13.75 4.82702 11.62 2.69702 9 2.69702Z" fill="#333333"/>
<path d="M14.08 14.8469C11.29 12.9869 6.73996 12.9869 3.92996 14.8469C2.65996 15.6969 1.95996 16.8469 1.95996 18.0769C1.95996 19.3069 2.65996 20.4469 3.91996 21.2869C5.31996 22.2269 7.15996 22.6969 8.99996 22.6969C10.84 22.6969 12.68 22.2269 14.08 21.2869C15.34 20.4369 16.04 19.2969 16.04 18.0569C16.03 16.8269 15.34 15.6869 14.08 14.8469Z" fill="#333333"/>
<path d="M19.9904 8.03712C20.1504 9.97712 18.7704 11.6771 16.8604 11.9071C16.8504 11.9071 16.8504 11.9071 16.8404 11.9071H16.8104C16.7504 11.9071 16.6904 11.9071 16.6404 11.9271C15.6704 11.9771 14.7804 11.6671 14.1104 11.0971C15.1404 10.1771 15.7304 8.79712 15.6104 7.29712C15.5404 6.48712 15.2604 5.74712 14.8404 5.11712C15.2204 4.92712 15.6604 4.80712 16.1104 4.76712C18.0704 4.59712 19.8204 6.05712 19.9904 8.03712Z" fill="#333333"/>
<path d="M21.9902 17.2869C21.9102 18.2569 21.2902 19.0969 20.2502 19.6669C19.2502 20.2169 17.9902 20.4769 16.7402 20.4469C17.4602 19.7969 17.8802 18.9869 17.9602 18.1269C18.0602 16.8869 17.4702 15.6969 16.2902 14.7469C15.6202 14.2169 14.8402 13.7969 13.9902 13.4869C16.2002 12.8469 18.9802 13.2769 20.6902 14.6569C21.6102 15.3969 22.0802 16.3269 21.9902 17.2869Z" fill="#333333"/>
</svg>
