<svg width="24" height="25" viewBox="0 0 24 25" fill="none" xmlns="http://www.w3.org/2000/svg">
<path d="M3.91 17.877C3.72 17.877 3.53 17.8069 3.38 17.6569C2.01 16.2769 1.25 14.457 1.25 12.5269C1.25 8.51695 4.5 5.25695 8.5 5.25695L14.57 5.27695L13.48 4.23695C13.18 3.94695 13.17 3.47695 13.46 3.17695C13.75 2.87695 14.22 2.86695 14.52 3.15695L16.96 5.49695C17.18 5.70695 17.25 6.03695 17.14 6.31695C17.03 6.59695 16.75 6.78695 16.44 6.78695L8.5 6.76695C5.33 6.76695 2.75 9.35695 2.75 12.537C2.75 14.0669 3.35 15.5169 4.44 16.6069C4.73 16.8969 4.73 17.3769 4.44 17.6669C4.29 17.8069 4.1 17.877 3.91 17.877Z" fill="#333333"/>
<path d="M9.9999 22.447C9.8099 22.447 9.6299 22.377 9.4799 22.237L7.0399 19.897C6.8199 19.687 6.7499 19.357 6.8599 19.077C6.9699 18.797 7.2499 18.607 7.5599 18.607L15.5099 18.627C18.6799 18.627 21.2599 16.037 21.2599 12.857C21.2599 11.327 20.6599 9.87702 19.5699 8.78702C19.2799 8.49702 19.2799 8.01702 19.5699 7.72702C19.8599 7.43702 20.3399 7.43702 20.6299 7.72702C21.9999 9.10702 22.7599 10.927 22.7599 12.857C22.7599 16.867 19.5099 20.127 15.5099 20.127L9.4399 20.107L10.5299 21.147C10.8299 21.437 10.8399 21.907 10.5499 22.207C10.3899 22.367 10.1999 22.447 9.9999 22.447Z" fill="#333333"/>
<path d="M9 16.197H15C16.92 16.197 18.5 14.627 18.5 12.697C18.5 10.777 16.93 9.19702 15 9.19702H9C7.08 9.19702 5.5 10.767 5.5 12.697C5.5 14.627 7.07 16.197 9 16.197Z" fill="#333333"/>
</svg>
