<svg width="19" height="20" viewBox="0 0 19 20" fill="none" xmlns="http://www.w3.org/2000/svg">
<path d="M2.75467 4.04021L0.836003 13.4163C-0.457654 19.7158 2.43274 21.3845 7.24142 17.1145L8.69696 15.8238C9.12487 15.4503 9.69477 15.2976 10.2521 15.4071L12.1483 15.7996C18.4478 17.0933 20.1192 14.2126 15.8465 9.39423L9.49684 2.23366C6.64839 -0.978567 3.61539 -0.165875 2.75467 4.04021ZM7.68619 6.06276L9.08381 11.2788C9.18992 11.6748 8.94951 12.0912 8.55348 12.1973C8.15745 12.3034 7.74104 12.063 7.63492 11.667L6.2373 6.45099C6.13118 6.05496 6.3716 5.63855 6.76763 5.53243C7.16366 5.42631 7.58007 5.66673 7.68619 6.06276Z" fill="#333333"/>
</svg>
