<svg width="40" height="40" viewBox="0 0 40 40" fill="none" xmlns="http://www.w3.org/2000/svg">
<path d="M28.3333 5.83325H11.6666C6.66659 5.83325 3.33325 8.33325 3.33325 14.1666V25.8333C3.33325 31.6666 6.66659 34.1666 11.6666 34.1666H28.3333C33.3333 34.1666 36.6666 31.6666 36.6666 25.8333V14.1666C36.6666 8.33325 33.3333 5.83325 28.3333 5.83325ZM29.1166 15.9833L23.8999 20.1499C22.7999 21.0333 21.3999 21.4666 19.9999 21.4666C18.5999 21.4666 17.1833 21.0333 16.0999 20.1499L10.8833 15.9833C10.3499 15.5499 10.2666 14.7499 10.6833 14.2166C11.1166 13.6833 11.8999 13.5833 12.4333 14.0166L17.6499 18.1833C18.9166 19.1999 21.0666 19.1999 22.3333 18.1833L27.5499 14.0166C28.0833 13.5833 28.8833 13.6666 29.2999 14.2166C29.7333 14.7499 29.6499 15.5499 29.1166 15.9833Z" fill="#F4C418"/>
</svg>
