<svg width="198" height="61" viewBox="0 0 198 61" fill="none" xmlns="http://www.w3.org/2000/svg">
<path d="M29.8122 0.949951C13.4772 0.949951 0.234375 14.1924 0.234375 30.5274C0.234375 46.8631 13.4772 60.1045 29.8122 60.1045C46.149 60.1045 59.3904 46.8631 59.3904 30.5274C59.3904 14.1934 46.149 0.951364 29.8118 0.951364L29.8122 0.949951ZM43.3764 43.6091C43.2502 43.816 43.0844 43.9959 42.8886 44.1385C42.6927 44.2812 42.4707 44.3839 42.2351 44.4406C41.9996 44.4974 41.7551 44.5071 41.5158 44.4693C41.2765 44.4315 41.047 44.3468 40.8404 44.2202C33.8959 39.9783 25.1535 39.0176 14.8578 41.3699C14.3811 41.4783 13.8808 41.393 13.4669 41.1327C13.0531 40.8724 12.7595 40.4585 12.6507 39.9818C12.5965 39.7458 12.5894 39.5014 12.6298 39.2627C12.6702 39.0239 12.7573 38.7955 12.8861 38.5904C13.0149 38.3854 13.1829 38.2077 13.3804 38.0677C13.578 37.9277 13.8012 37.828 14.0373 37.7743C25.3043 35.2002 34.9689 36.3085 42.7654 41.0732C43.6342 41.6065 43.9097 42.7403 43.3764 43.6091ZM46.9967 35.5555C46.3291 36.6406 44.9093 36.9832 43.8249 36.3156C35.8745 31.4288 23.7552 30.0135 14.3513 32.8681C13.1317 33.2364 11.8436 32.5491 11.4735 31.3316C11.2968 30.7463 11.3596 30.1149 11.6478 29.5757C11.9361 29.0365 12.4264 28.6337 13.0113 28.4556C23.7531 25.1963 37.1071 26.775 46.2373 32.3856C47.3216 33.0531 47.6642 34.4726 46.9967 35.5555ZM47.3075 27.1692C37.7747 21.5071 22.0468 20.9865 12.9452 23.7488C11.4837 24.1921 9.93812 23.367 9.49521 21.9055C9.28224 21.2033 9.35686 20.4453 9.70267 19.7981C10.0485 19.151 10.6372 18.6676 11.3393 18.4544C21.7872 15.2827 39.1557 15.8955 50.1309 22.4109C50.4437 22.596 50.7169 22.8409 50.9349 23.1317C51.1529 23.4225 51.3114 23.7534 51.4013 24.1056C51.4912 24.4577 51.5108 24.8241 51.4588 25.1838C51.4069 25.5435 51.2845 25.8895 51.0987 26.2018C50.3217 27.5164 48.6193 27.9498 47.3089 27.1692H47.3075ZM80.7058 28.2542C75.5986 27.0364 74.6909 26.1817 74.6909 24.3857C74.6909 22.6889 76.2873 21.547 78.6643 21.547C80.9672 21.547 83.2488 22.4141 85.6435 24.1992C85.7142 24.2532 85.806 24.2748 85.8943 24.2606C85.9387 24.2543 85.9814 24.2389 86.0196 24.2154C86.0579 24.192 86.091 24.161 86.1168 24.1243L88.6104 20.6093C88.6596 20.5396 88.6805 20.4537 88.6686 20.3692C88.6568 20.2847 88.6133 20.2079 88.5468 20.1544C85.6965 17.8681 82.4895 16.7566 78.7385 16.7566C73.2251 16.7566 69.3717 20.0657 69.3717 24.8003C69.3717 29.8775 72.6953 31.6753 78.4383 33.063C83.323 34.1887 84.1495 35.1317 84.1495 36.8172C84.1495 38.6856 82.4824 39.8476 79.7981 39.8476C76.8171 39.8476 74.3836 38.841 71.664 36.4887C71.5962 36.4313 71.5089 36.4023 71.4203 36.4074C71.3284 36.4145 71.2472 36.4569 71.1907 36.524L68.3934 39.8511C68.2768 39.9924 68.2909 40.1973 68.4251 40.3173C71.5898 43.1429 75.482 44.6334 79.6851 44.6334C85.6259 44.6334 89.4651 41.3875 89.4651 36.3615C89.4757 32.1207 86.9362 29.7719 80.7164 28.2588L80.7058 28.2542ZM102.908 23.2176C100.333 23.2176 98.2209 24.232 96.4761 26.3106V23.971C96.4765 23.8825 96.4417 23.7976 96.3795 23.7347C96.3172 23.6719 96.2325 23.6363 96.1441 23.6358H91.5702C91.3865 23.6358 91.2382 23.7863 91.2382 23.971V49.9667C91.2382 50.1504 91.3865 50.3022 91.5702 50.3022H96.1441C96.3277 50.3022 96.4761 50.1504 96.4761 49.9667V41.7619C98.2209 43.7151 100.333 44.6723 102.908 44.6723C107.694 44.6723 112.54 40.9884 112.54 33.946C112.547 26.9022 107.701 23.2173 102.911 23.2173L102.908 23.2176ZM107.22 33.946C107.22 37.5306 105.013 40.0348 101.848 40.0348C98.7224 40.0348 96.3631 37.4176 96.3631 33.946C96.3631 30.4741 98.7224 27.8576 101.848 27.8576C104.96 27.8572 107.22 30.4176 107.22 33.946ZM124.954 23.2176C118.791 23.2176 113.963 27.9632 113.963 34.0227C113.963 40.0171 118.759 44.7111 124.88 44.7111C131.065 44.7111 135.907 39.9818 135.907 33.946C135.907 27.9307 131.097 23.2183 124.954 23.2183V23.2176ZM124.954 40.0701C121.677 40.0701 119.204 37.4352 119.204 33.9442C119.204 30.4373 121.592 27.8926 124.88 27.8926C128.179 27.8926 130.666 30.5264 130.666 34.0209C130.666 37.5271 128.264 40.0701 124.954 40.0701ZM149.067 23.6358H144.034V18.4911C144.034 18.4474 144.026 18.404 144.009 18.3634C143.993 18.3229 143.968 18.2861 143.937 18.255C143.907 18.2239 143.87 18.1992 143.83 18.1822C143.789 18.1653 143.746 18.1565 143.702 18.1563H139.128C138.945 18.1563 138.793 18.3068 138.793 18.4911V23.6358H136.596C136.412 23.6358 136.264 23.7863 136.264 23.971V27.901C136.264 28.0854 136.412 28.2362 136.596 28.2362H138.793V38.4065C138.793 42.5142 140.838 44.5981 144.875 44.5981C146.514 44.5981 147.873 44.259 149.155 43.5314C149.261 43.4749 149.325 43.3619 149.325 43.2418V39.4979C149.325 39.3849 149.265 39.2754 149.166 39.2154C149.118 39.1846 149.063 39.1671 149.006 39.1646C148.948 39.1621 148.892 39.1748 148.841 39.2012C147.962 39.6427 147.11 39.8476 146.157 39.8476C144.691 39.8476 144.034 39.18 144.034 37.6895V28.238H149.067C149.251 28.238 149.399 28.0875 149.399 27.9028V23.9731C149.401 23.9293 149.393 23.8856 149.377 23.8447C149.361 23.8038 149.337 23.7665 149.307 23.7352C149.276 23.7039 149.239 23.6791 149.199 23.6624C149.158 23.6457 149.115 23.6373 149.071 23.6379L149.067 23.6358ZM166.6 23.656V23.0241C166.6 21.1652 167.313 20.3363 168.91 20.3363C169.863 20.3363 170.63 20.5256 171.488 20.8117C171.594 20.8449 171.704 20.8283 171.788 20.765C171.831 20.734 171.866 20.6931 171.89 20.6458C171.914 20.5985 171.927 20.5461 171.926 20.4931V16.6397C171.927 16.5677 171.904 16.4974 171.862 16.4395C171.819 16.3816 171.758 16.3391 171.689 16.3186C170.785 16.0491 169.627 15.7726 167.889 15.7726C163.668 15.7726 161.433 18.151 161.433 22.6483V23.616H159.236C159.052 23.616 158.9 23.7665 158.9 23.9509V27.901C158.9 28.0854 159.052 28.2362 159.236 28.2362H161.433V43.92C161.433 44.1072 161.585 44.2555 161.768 44.2555H166.339C166.526 44.2555 166.674 44.1072 166.674 43.92V28.2373H170.944L177.485 43.92C176.744 45.5659 176.013 45.8943 175.017 45.8943C174.211 45.8943 173.36 45.6542 172.495 45.1773C172.413 45.1359 172.318 45.1271 172.23 45.1526C172.142 45.1844 172.067 45.248 172.032 45.3327L170.482 48.734C170.407 48.8965 170.471 49.0837 170.626 49.1685C172.244 50.0444 173.703 50.4188 175.508 50.4188C178.884 50.4188 180.753 48.8435 182.395 44.6122L190.328 24.1137C190.348 24.063 190.356 24.008 190.35 23.9536C190.344 23.8992 190.324 23.8473 190.292 23.8025C190.263 23.7577 190.222 23.721 190.175 23.6956C190.127 23.6702 190.074 23.657 190.02 23.657H185.259C185.115 23.657 184.987 23.7478 184.941 23.8817L180.064 37.8096L174.723 23.8725C174.7 23.8093 174.657 23.7549 174.602 23.7164C174.546 23.6779 174.48 23.6572 174.413 23.657H166.6V23.656ZM156.435 23.6358H151.861C151.677 23.6358 151.525 23.7863 151.525 23.971V43.92C151.525 44.1072 151.677 44.2555 151.861 44.2555H156.435C156.619 44.2555 156.77 44.1072 156.77 43.92V23.9724C156.771 23.9283 156.762 23.8847 156.745 23.844C156.728 23.8032 156.704 23.7662 156.672 23.7351C156.641 23.7039 156.604 23.6793 156.563 23.6625C156.523 23.6457 156.479 23.6371 156.435 23.6372V23.6358ZM154.174 14.5519C152.363 14.5519 150.893 16.0184 150.893 17.83C150.893 18.2608 150.978 18.6875 151.143 19.0856C151.308 19.4836 151.55 19.8453 151.854 20.15C152.159 20.4547 152.521 20.6963 152.919 20.8612C153.317 21.026 153.744 21.1109 154.174 21.1108C155.986 21.1108 157.452 19.6426 157.452 17.83C157.452 16.0188 155.983 14.5519 154.174 14.5519ZM194.234 30.0502C192.426 30.0502 191.016 28.5968 191.016 26.8319C191.016 25.067 192.443 23.597 194.252 23.597C196.06 23.597 197.469 25.05 197.469 26.8135C197.469 28.5785 196.042 30.0502 194.234 30.0502ZM194.252 23.917C192.602 23.917 191.356 25.2273 191.356 26.8319C191.356 28.4358 192.595 29.7285 194.234 29.7285C195.884 29.7285 197.13 28.4192 197.13 26.8135C197.13 25.2097 195.891 23.917 194.252 23.917ZM194.965 27.1445L195.876 28.4188H195.106L194.287 27.2497H193.584V28.4188H192.941V25.0408H194.446C195.234 25.0408 195.749 25.4424 195.749 26.1185C195.753 26.6723 195.431 27.0106 194.969 27.1445H194.965ZM194.421 25.6204H193.584V26.6889H194.421C194.838 26.6889 195.089 26.4844 195.089 26.1541C195.089 25.8066 194.838 25.6204 194.421 25.6204Z" fill="#606060"/>
</svg>
