<svg width="40" height="40" viewBox="0 0 40 40" fill="none" xmlns="http://www.w3.org/2000/svg">
<path d="M16.2833 6.25H18.3187V14.1667C18.3187 14.85 18.8724 15.4167 19.54 15.4167C20.2076 15.4167 20.7613 14.85 20.7613 14.1667V6.25H22.7967C23.4644 6.25 24.018 5.68333 24.018 5C24.018 4.31667 23.4644 3.75 22.7967 3.75H16.2833C15.6157 3.75 15.062 4.31667 15.062 5C15.062 5.68333 15.6157 6.25 16.2833 6.25Z" fill="white"/>
<path d="M22.7967 33.75H20.7613V25.8333C20.7613 25.15 20.2076 24.5833 19.54 24.5833C18.8724 24.5833 18.3187 25.15 18.3187 25.8333V33.75H16.2833C15.6157 33.75 15.062 34.3166 15.062 35C15.062 35.6833 15.6157 36.25 16.2833 36.25H22.7967C23.4644 36.25 24.018 35.6833 24.018 35C24.018 34.3166 23.4644 33.75 22.7967 33.75Z" fill="white"/>
<path d="M4.60841 16.4666C4.80381 16.5833 5.0155 16.6333 5.2109 16.6333C5.63428 16.6333 6.04137 16.4166 6.26934 16L7.29521 14.2L14.0041 18.1666C14.1832 18.2833 14.3949 18.3333 14.6066 18.3333C15.0299 18.3333 15.437 18.1166 15.665 17.7C16.0069 17.1166 15.7953 16.35 15.2253 16L8.51648 12.0333L9.52607 10.2333C9.86802 9.63331 9.65633 8.86664 9.08641 8.53331C8.5002 8.18331 7.75115 8.38331 7.42548 8.98331L4.16875 14.75C3.8268 15.3666 4.0222 16.1166 4.60841 16.4666Z" fill="white"/>
<path d="M34.4723 23.5334C33.886 23.1834 33.137 23.3834 32.8113 23.9834L31.7855 25.7834L25.0766 21.8334C24.4904 21.4834 23.7413 21.7 23.4157 22.2834C23.0737 22.8834 23.2854 23.65 23.8553 23.9834L30.5479 27.95L29.5383 29.75C29.1964 30.35 29.408 31.1167 29.978 31.45C30.1734 31.5667 30.3851 31.6167 30.5805 31.6167C31.0038 31.6167 31.4109 31.4 31.6389 30.9834L34.8956 25.2167C35.2539 24.6334 35.0585 23.8834 34.4723 23.5334Z" fill="white"/>
<path d="M30.5643 12.0333L23.8555 16C23.2693 16.35 23.0739 17.1166 23.4158 17.7C23.6438 18.1 24.0509 18.3333 24.4743 18.3333C24.6859 18.3333 24.8976 18.2833 25.0768 18.1666L31.7693 14.2L32.7952 16C33.0232 16.4 33.4303 16.6333 33.8536 16.6333C34.0653 16.6333 34.277 16.5833 34.4561 16.4666C35.0423 16.1166 35.2377 15.35 34.8958 14.7666L31.6391 8.99997C31.2971 8.39997 30.5481 8.19997 29.9781 8.54997C29.3919 8.89997 29.1965 9.66664 29.5385 10.25L30.5643 12.0333Z" fill="white"/>
<path d="M8.51648 27.9667L15.2091 24C15.7953 23.65 15.9907 22.8834 15.6487 22.3C15.3068 21.7 14.5577 21.5 13.9878 21.85L7.29521 25.8167L6.26934 24.0167C5.92738 23.4167 5.17834 23.2167 4.60841 23.5667C4.0222 23.9167 3.8268 24.6834 4.16875 25.2667L7.42548 31.0334C7.65345 31.4334 8.06054 31.6667 8.48391 31.6667C8.6956 31.6667 8.90729 31.6167 9.08641 31.5C9.67262 31.15 9.86802 30.3833 9.52607 29.8L8.51648 27.9667Z" fill="white"/>
<path d="M25.2394 20C25.2394 21.0666 24.9625 22.05 24.474 22.9166C23.4807 24.6666 21.6407 25.8333 19.5401 25.8333C17.4395 25.8333 15.5995 24.6666 14.6062 22.9166C14.1176 22.05 13.8408 21.0666 13.8408 20C13.8408 18.9333 14.1176 17.95 14.6062 17.0833C15.5995 15.3333 17.4395 14.1666 19.5401 14.1666C21.6407 14.1666 23.4807 15.3333 24.474 17.0833C24.9625 17.95 25.2394 18.9333 25.2394 20Z" fill="white"/>
</svg>
