<svg width="24" height="25" viewBox="0 0 24 25" fill="none" xmlns="http://www.w3.org/2000/svg">
<path d="M16.8301 16.3369C17.5001 15.8969 18.3801 16.3769 18.3801 17.1769V18.4669C18.3801 19.7369 17.3901 21.0969 16.2001 21.4969L13.0101 22.5569C12.4501 22.7469 11.5401 22.7469 10.9901 22.5569L7.80012 21.4969C6.60012 21.0969 5.62012 19.7369 5.62012 18.4669V17.1669C5.62012 16.3769 6.50012 15.8969 7.16012 16.3269L9.22012 17.6669C10.0101 18.1969 11.0101 18.4569 12.0101 18.4569C13.0101 18.4569 14.0101 18.1969 14.8001 17.6669L16.8301 16.3369Z" fill="#333333"/>
<path d="M19.9795 7.15708L13.9895 3.22708C12.9095 2.51708 11.1295 2.51708 10.0495 3.22708L4.02953 7.15708C2.09953 8.40708 2.09953 11.2371 4.02953 12.4971L5.62953 13.5371L10.0495 16.4171C11.1295 17.1271 12.9095 17.1271 13.9895 16.4171L18.3795 13.5371L19.7495 12.6371V15.6971C19.7495 16.1071 20.0895 16.4471 20.4995 16.4471C20.9095 16.4471 21.2495 16.1071 21.2495 15.6971V10.7771C21.6495 9.48708 21.2395 7.98708 19.9795 7.15708Z" fill="#333333"/>
</svg>
