<svg width="24" height="25" viewBox="0 0 24 25" fill="none" xmlns="http://www.w3.org/2000/svg">
<path d="M12.0001 17.6533C12.9003 17.6533 13.6301 16.9235 13.6301 16.0233C13.6301 15.1231 12.9003 14.3933 12.0001 14.3933C11.0999 14.3933 10.3701 15.1231 10.3701 16.0233C10.3701 16.9235 11.0999 17.6533 12.0001 17.6533Z" fill="#333333"/>
<path d="M16.65 9.74322H7.35C7.27 9.74322 7.2 9.74322 7.12 9.74322V8.58322C7.12 5.65322 7.95 3.70322 12 3.70322C16.33 3.70322 16.88 5.81322 16.88 7.65322C16.88 8.04322 17.19 8.35322 17.58 8.35322C17.97 8.35322 18.28 8.04322 18.28 7.65322C18.28 4.10322 16.17 2.30322 12 2.30322C6.37 2.30322 5.72 5.88322 5.72 8.58322V9.83322C2.92 10.1832 2 11.6032 2 15.0932V16.9532C2 21.0532 3.25 22.3032 7.35 22.3032H16.65C20.75 22.3032 22 21.0532 22 16.9532V15.0932C22 10.9932 20.75 9.74322 16.65 9.74322ZM12 19.0432C10.33 19.0432 8.98 17.6832 8.98 16.0232C8.98 14.3532 10.34 13.0032 12 13.0032C13.66 13.0032 15.02 14.3632 15.02 16.0232C15.02 17.6932 13.67 19.0432 12 19.0432Z" fill="#333333"/>
</svg>
