<svg width="24" height="25" viewBox="0 0 24 25" fill="none" xmlns="http://www.w3.org/2000/svg">
<path opacity="0.4" d="M17.7405 8.26709C17.7505 8.33709 17.7505 8.41709 17.7405 8.48709C17.7405 8.41709 17.7305 8.34709 17.7305 8.27709L17.7405 8.26709Z" fill="#333333"/>
<path d="M17.2799 7.25702L3.82988 20.707C2.42988 19.817 1.87988 18.227 1.87988 16.697V8.69702C1.87988 5.27702 3.20988 3.94702 6.62988 3.94702H12.6299C15.5199 3.94702 16.9099 4.89702 17.2799 7.25702Z" fill="#333333"/>
<path d="M21.4 2.9269C21.1 2.6269 20.61 2.6269 20.31 2.9269L1.85 21.3869C1.55 21.6869 1.55 22.1769 1.85 22.4769C2 22.6169 2.2 22.6969 2.39 22.6969C2.59 22.6969 2.78 22.6169 2.93 22.4669L21.4 4.0069C21.7 3.7069 21.7 3.2269 21.4 2.9269Z" fill="#333333"/>
<path d="M22.3802 9.077V16.317C22.3802 17.747 21.6802 18.317 21.2802 18.527C21.0902 18.627 20.7902 18.737 20.4202 18.737C19.9902 18.737 19.4602 18.597 18.8402 18.157L17.3602 17.117C17.2902 19.327 16.5902 20.587 15.0002 21.117C14.3602 21.347 13.5702 21.447 12.6202 21.447H6.62016C6.38016 21.447 6.15016 21.437 5.91016 21.407L15.0002 12.327L20.6502 6.677C20.9102 6.697 21.1202 6.777 21.2802 6.867C21.6802 7.077 22.3802 7.647 22.3802 9.077Z" fill="#333333"/>
</svg>
