<svg width="24" height="25" viewBox="0 0 24 25" fill="none" xmlns="http://www.w3.org/2000/svg">
<path d="M21.4499 14.3369V15.3369C21.4499 15.6069 21.2399 15.8269 20.9599 15.8369H19.4999C18.9699 15.8369 18.4899 15.4469 18.4499 14.9269C18.4199 14.6169 18.5399 14.3269 18.7399 14.1269C18.9199 13.9369 19.1699 13.8369 19.4399 13.8369H20.9499C21.2399 13.8469 21.4499 14.0669 21.4499 14.3369Z" fill="#333333"/>
<path d="M17.9902 13.3869C17.4902 13.8769 17.2502 14.6069 17.4502 15.3669C17.7102 16.2969 18.6202 16.8869 19.5802 16.8869H20.4502C21.0002 16.8869 21.4502 17.3369 21.4502 17.8869V18.0769C21.4502 20.1469 19.7602 21.8369 17.6902 21.8369H6.2102C4.1402 21.8369 2.4502 20.1469 2.4502 18.0769V11.3469C2.4502 10.1169 3.0402 9.02691 3.9502 8.34691C4.5802 7.86691 5.3602 7.58691 6.2102 7.58691H17.6902C19.7602 7.58691 21.4502 9.27691 21.4502 11.3469V11.7869C21.4502 12.3369 21.0002 12.7869 20.4502 12.7869H19.4302C18.8702 12.7869 18.3602 13.0069 17.9902 13.3869Z" fill="#333333"/>
<path d="M16.2001 5.51702C16.4701 5.78702 16.2401 6.20702 15.8601 6.20702L8.18006 6.19702C7.74006 6.19702 7.51006 5.65702 7.83006 5.34702L9.45006 3.71702C10.8201 2.35702 13.0401 2.35702 14.4101 3.71702L16.1601 5.48702C16.1701 5.49702 16.1901 5.50702 16.2001 5.51702Z" fill="#333333"/>
</svg>
