<svg width="614" height="692" viewBox="0 0 614 692" fill="none" xmlns="http://www.w3.org/2000/svg">
<rect width="614" height="692" rx="20" fill="white"/>
<path d="M218.214 67.7634V50.3089H221.376V65.1129H229.063V67.7634H218.214ZM237.381 68.0191C236.103 68.0191 234.995 67.7379 234.058 67.1754C233.12 66.6129 232.393 65.8259 231.876 64.8146C231.364 63.8032 231.109 62.6214 231.109 61.2691C231.109 59.9168 231.364 58.7322 231.876 57.7151C232.393 56.6981 233.12 55.9083 234.058 55.3458C234.995 54.7833 236.103 54.5021 237.381 54.5021C238.66 54.5021 239.768 54.7833 240.705 55.3458C241.643 55.9083 242.367 56.6981 242.879 57.7151C243.396 58.7322 243.654 59.9168 243.654 61.2691C243.654 62.6214 243.396 63.8032 242.879 64.8146C242.367 65.8259 241.643 66.6129 240.705 67.1754C239.768 67.7379 238.66 68.0191 237.381 68.0191ZM237.398 65.5475C238.092 65.5475 238.671 65.3572 239.137 64.9765C239.603 64.5901 239.95 64.0731 240.177 63.4254C240.41 62.7776 240.526 62.056 240.526 61.2606C240.526 60.4595 240.41 59.735 240.177 59.0873C239.95 58.4339 239.603 57.914 239.137 57.5276C238.671 57.1413 238.092 56.9481 237.398 56.9481C236.688 56.9481 236.097 57.1413 235.626 57.5276C235.16 57.914 234.81 58.4339 234.577 59.0873C234.35 59.735 234.237 60.4595 234.237 61.2606C234.237 62.056 234.35 62.7776 234.577 63.4254C234.81 64.0731 235.16 64.5901 235.626 64.9765C236.097 65.3572 236.688 65.5475 237.398 65.5475ZM250.04 68.0276C249.21 68.0276 248.463 67.8799 247.798 67.5845C247.139 67.2833 246.616 66.8401 246.23 66.2549C245.849 65.6697 245.659 64.9481 245.659 64.0901C245.659 63.3515 245.795 62.7407 246.068 62.2577C246.341 61.7748 246.713 61.3884 247.185 61.0987C247.656 60.8089 248.188 60.5901 248.778 60.4424C249.375 60.289 249.991 60.1782 250.628 60.11C251.395 60.0305 252.017 59.9595 252.494 59.897C252.972 59.8288 253.318 59.7265 253.534 59.5901C253.756 59.4481 253.866 59.2293 253.866 58.9339V58.8827C253.866 58.2407 253.676 57.7435 253.295 57.3913C252.915 57.039 252.366 56.8629 251.651 56.8629C250.895 56.8629 250.295 57.0276 249.852 57.3572C249.415 57.6867 249.119 58.0759 248.966 58.5248L246.085 58.1157C246.313 57.3202 246.688 56.6555 247.21 56.1214C247.733 55.5816 248.372 55.1782 249.128 54.9112C249.884 54.6384 250.719 54.5021 251.634 54.5021C252.264 54.5021 252.892 54.5759 253.517 54.7237C254.142 54.8714 254.713 55.1157 255.23 55.4566C255.747 55.7918 256.162 56.2492 256.474 56.8288C256.793 57.4083 256.952 58.1327 256.952 59.0021V67.7634H253.986V65.9651H253.884C253.696 66.3288 253.432 66.6697 253.091 66.9879C252.756 67.3004 252.332 67.5532 251.821 67.7464C251.315 67.9339 250.722 68.0276 250.04 68.0276ZM250.841 65.7606C251.46 65.7606 251.997 65.6384 252.452 65.3941C252.906 65.1441 253.256 64.8146 253.5 64.4055C253.75 63.9964 253.875 63.5504 253.875 63.0674V61.5248C253.778 61.6043 253.614 61.6782 253.381 61.7464C253.153 61.8146 252.898 61.8742 252.614 61.9254C252.33 61.9765 252.048 62.022 251.77 62.0617C251.491 62.1015 251.25 62.1356 251.045 62.164C250.585 62.2265 250.173 62.3288 249.81 62.4708C249.446 62.6129 249.159 62.8117 248.949 63.0674C248.739 63.3174 248.634 63.6413 248.634 64.039C248.634 64.6072 248.841 65.0362 249.256 65.3259C249.67 65.6157 250.199 65.7606 250.841 65.7606ZM263.139 60.093V67.7634H260.054V54.6725H263.003V56.897H263.156C263.457 56.164 263.938 55.5816 264.597 55.1498C265.261 54.718 266.082 54.5021 267.06 54.5021C267.963 54.5021 268.75 54.6952 269.42 55.0816C270.097 55.468 270.619 56.0276 270.989 56.7606C271.364 57.4935 271.548 58.3827 271.543 59.4282V67.7634H268.457V59.9055C268.457 59.0305 268.23 58.3458 267.776 57.8515C267.327 57.3572 266.705 57.11 265.909 57.11C265.369 57.11 264.889 57.2293 264.469 57.468C264.054 57.7009 263.727 58.039 263.489 58.4822C263.256 58.9254 263.139 59.4623 263.139 60.093ZM295.709 56.1981H292.521C292.43 55.6754 292.263 55.2123 292.018 54.8089C291.774 54.3998 291.47 54.0532 291.107 53.7691C290.743 53.485 290.328 53.2719 289.862 53.1299C289.402 52.9822 288.905 52.9083 288.371 52.9083C287.422 52.9083 286.581 53.147 285.848 53.6242C285.115 54.0958 284.541 54.789 284.126 55.7038C283.712 56.6129 283.504 57.7237 283.504 59.0362C283.504 60.3714 283.712 61.4964 284.126 62.4112C284.547 63.3202 285.121 64.0077 285.848 64.4737C286.581 64.9339 287.419 65.164 288.362 65.164C288.885 65.164 289.374 65.0958 289.828 64.9595C290.288 64.8174 290.7 64.61 291.064 64.3373C291.433 64.0646 291.743 63.7293 291.993 63.3316C292.249 62.9339 292.425 62.4793 292.521 61.968L295.709 61.985C295.589 62.8146 295.331 63.593 294.933 64.3202C294.541 65.0475 294.027 65.6896 293.391 66.2464C292.754 66.7975 292.01 67.2293 291.158 67.5418C290.305 67.8487 289.359 68.0021 288.32 68.0021C286.786 68.0021 285.416 67.647 284.212 66.9367C283.007 66.2265 282.058 65.2009 281.365 63.86C280.672 62.5191 280.325 60.9112 280.325 59.0362C280.325 57.1555 280.675 55.5475 281.374 54.2123C282.072 52.8714 283.024 51.8458 284.229 51.1356C285.433 50.4254 286.797 50.0702 288.32 50.0702C289.291 50.0702 290.195 50.2066 291.03 50.4793C291.865 50.7521 292.609 51.1526 293.263 51.681C293.916 52.2038 294.453 52.8458 294.874 53.6072C295.3 54.3629 295.578 55.2265 295.709 56.1981ZM302.235 68.0276C301.406 68.0276 300.658 67.8799 299.994 67.5845C299.335 67.2833 298.812 66.8401 298.425 66.2549C298.045 65.6697 297.854 64.9481 297.854 64.0901C297.854 63.3515 297.991 62.7407 298.263 62.2577C298.536 61.7748 298.908 61.3884 299.38 61.0987C299.852 60.8089 300.383 60.5901 300.974 60.4424C301.57 60.289 302.187 60.1782 302.823 60.11C303.59 60.0305 304.212 59.9595 304.69 59.897C305.167 59.8288 305.513 59.7265 305.729 59.5901C305.951 59.4481 306.062 59.2293 306.062 58.9339V58.8827C306.062 58.2407 305.871 57.7435 305.491 57.3913C305.11 57.039 304.562 56.8629 303.846 56.8629C303.09 56.8629 302.491 57.0276 302.048 57.3572C301.61 57.6867 301.315 58.0759 301.161 58.5248L298.281 58.1157C298.508 57.3202 298.883 56.6555 299.406 56.1214C299.928 55.5816 300.567 55.1782 301.323 54.9112C302.079 54.6384 302.914 54.5021 303.829 54.5021C304.46 54.5021 305.087 54.5759 305.712 54.7237C306.337 54.8714 306.908 55.1157 307.425 55.4566C307.942 55.7918 308.357 56.2492 308.67 56.8288C308.988 57.4083 309.147 58.1327 309.147 59.0021V67.7634H306.181V65.9651H306.079C305.891 66.3288 305.627 66.6697 305.286 66.9879C304.951 67.3004 304.528 67.5532 304.016 67.7464C303.511 67.9339 302.917 68.0276 302.235 68.0276ZM303.036 65.7606C303.656 65.7606 304.192 65.6384 304.647 65.3941C305.102 65.1441 305.451 64.8146 305.695 64.4055C305.945 63.9964 306.07 63.5504 306.07 63.0674V61.5248C305.974 61.6043 305.809 61.6782 305.576 61.7464C305.349 61.8146 305.093 61.8742 304.809 61.9254C304.525 61.9765 304.244 62.022 303.965 62.0617C303.687 62.1015 303.445 62.1356 303.241 62.164C302.781 62.2265 302.369 62.3288 302.005 62.4708C301.641 62.6129 301.354 62.8117 301.144 63.0674C300.934 63.3174 300.829 63.6413 300.829 64.039C300.829 64.6072 301.036 65.0362 301.451 65.3259C301.866 65.6157 302.394 65.7606 303.036 65.7606ZM315.335 50.3089V67.7634H312.249V50.3089H315.335ZM324.217 68.0191C322.911 68.0191 321.788 67.7322 320.851 67.1583C319.919 66.5845 319.2 65.7918 318.695 64.7805C318.195 63.7634 317.945 62.593 317.945 61.2691C317.945 59.9396 318.2 58.7663 318.712 57.7492C319.223 56.7265 319.945 55.931 320.876 55.3629C321.814 54.789 322.922 54.5021 324.2 54.5021C325.263 54.5021 326.203 54.6981 327.021 55.0901C327.845 55.4765 328.501 56.0248 328.99 56.735C329.479 57.4396 329.757 58.2634 329.825 59.2066H326.876C326.757 58.5759 326.473 58.0504 326.024 57.6299C325.581 57.2038 324.987 56.9907 324.243 56.9907C323.612 56.9907 323.058 57.1612 322.581 57.5021C322.104 57.8373 321.732 58.3202 321.464 58.9509C321.203 59.5816 321.072 60.3373 321.072 61.218C321.072 62.11 321.203 62.8771 321.464 63.5191C321.726 64.1555 322.092 64.647 322.564 64.9935C323.041 65.3345 323.601 65.5049 324.243 65.5049C324.697 65.5049 325.104 65.4197 325.462 65.2492C325.825 65.0731 326.129 64.8202 326.374 64.4907C326.618 64.1612 326.786 63.7606 326.876 63.289H329.825C329.751 64.2151 329.479 65.0362 329.007 65.7521C328.536 66.4623 327.893 67.0191 327.081 67.4225C326.268 67.8202 325.314 68.0191 324.217 68.0191ZM340.702 62.2577V54.6725H343.788V67.7634H340.796V65.4367H340.66C340.364 66.1697 339.879 66.7691 339.202 67.235C338.532 67.7009 337.705 67.9339 336.722 67.9339C335.864 67.9339 335.106 67.7435 334.447 67.3629C333.793 66.9765 333.282 66.4168 332.913 65.6839C332.543 64.9452 332.359 64.0532 332.359 63.0077V54.6725H335.444V62.5305C335.444 63.36 335.671 64.0191 336.126 64.5077C336.58 64.9964 337.177 65.2407 337.915 65.2407C338.37 65.2407 338.81 65.1299 339.237 64.9083C339.663 64.6867 340.012 64.3572 340.285 63.9197C340.563 63.4765 340.702 62.9225 340.702 62.2577ZM350.045 50.3089V67.7634H346.96V50.3089H350.045ZM356.985 68.0276C356.156 68.0276 355.408 67.8799 354.744 67.5845C354.085 67.2833 353.562 66.8401 353.175 66.2549C352.795 65.6697 352.604 64.9481 352.604 64.0901C352.604 63.3515 352.741 62.7407 353.013 62.2577C353.286 61.7748 353.658 61.3884 354.13 61.0987C354.602 60.8089 355.133 60.5901 355.724 60.4424C356.32 60.289 356.937 60.1782 357.573 60.11C358.34 60.0305 358.962 59.9595 359.44 59.897C359.917 59.8288 360.263 59.7265 360.479 59.5901C360.701 59.4481 360.812 59.2293 360.812 58.9339V58.8827C360.812 58.2407 360.621 57.7435 360.241 57.3913C359.86 57.039 359.312 56.8629 358.596 56.8629C357.84 56.8629 357.241 57.0276 356.798 57.3572C356.36 57.6867 356.065 58.0759 355.911 58.5248L353.031 58.1157C353.258 57.3202 353.633 56.6555 354.156 56.1214C354.678 55.5816 355.317 55.1782 356.073 54.9112C356.829 54.6384 357.664 54.5021 358.579 54.5021C359.21 54.5021 359.837 54.5759 360.462 54.7237C361.087 54.8714 361.658 55.1157 362.175 55.4566C362.692 55.7918 363.107 56.2492 363.42 56.8288C363.738 57.4083 363.897 58.1327 363.897 59.0021V67.7634H360.931V65.9651H360.829C360.641 66.3288 360.377 66.6697 360.036 66.9879C359.701 67.3004 359.278 67.5532 358.766 67.7464C358.261 67.9339 357.667 68.0276 356.985 68.0276ZM357.786 65.7606C358.406 65.7606 358.942 65.6384 359.397 65.3941C359.852 65.1441 360.201 64.8146 360.445 64.4055C360.695 63.9964 360.82 63.5504 360.82 63.0674V61.5248C360.724 61.6043 360.559 61.6782 360.326 61.7464C360.099 61.8146 359.843 61.8742 359.559 61.9254C359.275 61.9765 358.994 62.022 358.715 62.0617C358.437 62.1015 358.195 62.1356 357.991 62.164C357.531 62.2265 357.119 62.3288 356.755 62.4708C356.391 62.6129 356.104 62.8117 355.894 63.0674C355.684 63.3174 355.579 63.6413 355.579 64.039C355.579 64.6072 355.786 65.0362 356.201 65.3259C356.616 65.6157 357.144 65.7606 357.786 65.7606ZM373.536 54.6725V57.0589H366.011V54.6725H373.536ZM367.869 51.5362H370.954V63.8259C370.954 64.2407 371.016 64.5589 371.141 64.7805C371.272 64.9964 371.442 65.1441 371.653 65.2237C371.863 65.3032 372.096 65.343 372.352 65.343C372.545 65.343 372.721 65.3288 372.88 65.3004C373.045 65.272 373.17 65.2464 373.255 65.2237L373.775 67.6356C373.61 67.6924 373.374 67.7549 373.067 67.8231C372.766 67.8913 372.397 67.931 371.96 67.9424C371.187 67.9651 370.491 67.8487 369.871 67.593C369.252 67.3316 368.761 66.9282 368.397 66.3827C368.039 65.8373 367.863 65.1555 367.869 64.3373V51.5362ZM381.686 68.0191C380.408 68.0191 379.3 67.7379 378.362 67.1754C377.425 66.6129 376.697 65.8259 376.18 64.8146C375.669 63.8032 375.413 62.6214 375.413 61.2691C375.413 59.9168 375.669 58.7322 376.18 57.7151C376.697 56.6981 377.425 55.9083 378.362 55.3458C379.3 54.7833 380.408 54.5021 381.686 54.5021C382.964 54.5021 384.072 54.7833 385.01 55.3458C385.947 55.9083 386.672 56.6981 387.183 57.7151C387.7 58.7322 387.959 59.9168 387.959 61.2691C387.959 62.6214 387.7 63.8032 387.183 64.8146C386.672 65.8259 385.947 66.6129 385.01 67.1754C384.072 67.7379 382.964 68.0191 381.686 68.0191ZM381.703 65.5475C382.396 65.5475 382.976 65.3572 383.442 64.9765C383.908 64.5901 384.254 64.0731 384.482 63.4254C384.714 62.7776 384.831 62.056 384.831 61.2606C384.831 60.4595 384.714 59.735 384.482 59.0873C384.254 58.4339 383.908 57.914 383.442 57.5276C382.976 57.1413 382.396 56.9481 381.703 56.9481C380.993 56.9481 380.402 57.1413 379.93 57.5276C379.464 57.914 379.115 58.4339 378.882 59.0873C378.655 59.735 378.541 60.4595 378.541 61.2606C378.541 62.056 378.655 62.7776 378.882 63.4254C379.115 64.0731 379.464 64.5901 379.93 64.9765C380.402 65.3572 380.993 65.5475 381.703 65.5475ZM390.577 67.7634V54.6725H393.569V56.8543H393.705C393.944 56.0987 394.353 55.5163 394.933 55.1072C395.518 54.6924 396.185 54.485 396.935 54.485C397.106 54.485 397.296 54.4935 397.506 54.5106C397.722 54.5219 397.901 54.5418 398.043 54.5702V57.4083C397.913 57.3629 397.705 57.3231 397.421 57.289C397.143 57.2492 396.873 57.2293 396.612 57.2293C396.049 57.2293 395.543 57.3515 395.094 57.5958C394.651 57.8345 394.302 58.1668 394.046 58.593C393.79 59.0191 393.663 59.5106 393.663 60.0674V67.7634H390.577Z" fill="#333333"/>
<rect x="23.8193" y="196.348" width="566.361" height="4" rx="2" fill="#D9D9D9"/>
<rect x="23.8193" y="196.348" width="229.518" height="4" rx="2" fill="#156064"/>
<ellipse cx="257.535" cy="198.348" rx="11.6797" ry="11.8068" fill="#F5F5F5"/>
<path d="M26.6111 172V158.909H28.5862V170.3H34.518V172H26.6111ZM40.7535 172.198C39.833 172.198 39.0297 171.987 38.3437 171.565C37.6576 171.143 37.1249 170.553 36.7456 169.795C36.3664 169.036 36.1768 168.15 36.1768 167.136C36.1768 166.117 36.3664 165.227 36.7456 164.464C37.1249 163.701 37.6576 163.109 38.3437 162.687C39.0297 162.265 39.833 162.054 40.7535 162.054C41.6739 162.054 42.4772 162.265 43.1633 162.687C43.8493 163.109 44.382 163.701 44.7613 164.464C45.1405 165.227 45.3302 166.117 45.3302 167.136C45.3302 168.15 45.1405 169.036 44.7613 169.795C44.382 170.553 43.8493 171.143 43.1633 171.565C42.4772 171.987 41.6739 172.198 40.7535 172.198ZM40.7599 170.594C41.3564 170.594 41.8508 170.436 42.2428 170.121C42.6349 169.805 42.9246 169.386 43.1121 168.862C43.3039 168.337 43.3998 167.76 43.3998 167.129C43.3998 166.503 43.3039 165.928 43.1121 165.403C42.9246 164.875 42.6349 164.451 42.2428 164.131C41.8508 163.812 41.3564 163.652 40.7599 163.652C40.159 163.652 39.6604 163.812 39.2641 164.131C38.8721 164.451 38.5802 164.875 38.3884 165.403C38.2009 165.928 38.1072 166.503 38.1072 167.129C38.1072 167.76 38.2009 168.337 38.3884 168.862C38.5802 169.386 38.8721 169.805 39.2641 170.121C39.6604 170.436 40.159 170.594 40.7599 170.594ZM50.3208 172.217C49.6986 172.217 49.1361 172.102 48.6333 171.872C48.1304 171.638 47.732 171.299 47.4379 170.856C47.1482 170.413 47.0033 169.869 47.0033 169.226C47.0033 168.672 47.1098 168.216 47.3229 167.858C47.536 167.5 47.8236 167.217 48.1858 167.008C48.548 166.799 48.9529 166.641 49.4003 166.535C49.8477 166.428 50.3037 166.347 50.7682 166.292C51.3563 166.224 51.8335 166.168 52.2 166.126C52.5665 166.079 52.8328 166.004 52.999 165.902C53.1652 165.8 53.2483 165.634 53.2483 165.403V165.359C53.2483 164.8 53.0906 164.368 52.7753 164.061C52.4642 163.754 51.9997 163.601 51.3818 163.601C50.7384 163.601 50.2313 163.744 49.8605 164.029C49.4941 164.31 49.2405 164.624 49.0999 164.969L47.3037 164.56C47.5168 163.963 47.8279 163.482 48.2369 163.115C48.6503 162.744 49.1254 162.476 49.6624 162.31C50.1993 162.139 50.7639 162.054 51.3563 162.054C51.7483 162.054 52.1638 162.101 52.6027 162.195C53.0459 162.284 53.4593 162.45 53.8428 162.693C54.2306 162.936 54.548 163.283 54.7952 163.735C55.0423 164.183 55.1659 164.764 55.1659 165.48V172H53.2994V170.658H53.2227C53.0992 170.905 52.9138 171.148 52.6666 171.386C52.4195 171.625 52.102 171.823 51.7142 171.981C51.3264 172.138 50.8619 172.217 50.3208 172.217ZM50.7362 170.683C51.2646 170.683 51.7164 170.579 52.0914 170.37C52.4706 170.161 52.7583 169.888 52.9543 169.552C53.1546 169.211 53.2547 168.847 53.2547 168.459V167.193C53.1865 167.261 53.0544 167.325 52.8584 167.385C52.6666 167.44 52.4472 167.489 52.2 167.532C51.9529 167.57 51.7121 167.607 51.4777 167.641C51.2433 167.67 51.0473 167.696 50.8896 167.717C50.5189 167.764 50.1801 167.843 49.8733 167.954C49.5708 168.065 49.3279 168.224 49.1446 168.433C48.9656 168.638 48.8762 168.911 48.8762 169.251C48.8762 169.724 49.0509 170.082 49.4003 170.325C49.7497 170.564 50.195 170.683 50.7362 170.683ZM59.6228 166.17V172H57.7116V162.182H59.5461V163.78H59.6675C59.8934 163.26 60.2471 162.842 60.7286 162.527C61.2144 162.212 61.8259 162.054 62.5631 162.054C63.2322 162.054 63.8181 162.195 64.3209 162.476C64.8238 162.753 65.2137 163.166 65.4907 163.716C65.7677 164.266 65.9062 164.945 65.9062 165.755V172H63.9949V165.985C63.9949 165.273 63.8096 164.717 63.4388 164.317C63.0681 163.912 62.5589 163.71 61.9111 163.71C61.468 163.71 61.0738 163.805 60.7286 163.997C60.3877 164.189 60.1171 164.47 59.9168 164.841C59.7208 165.207 59.6228 165.651 59.6228 166.17ZM74.4923 172H72.3957L77.1066 158.909H79.3886L84.0995 172H82.0029L78.3019 161.287H78.1997L74.4923 172ZM74.8438 166.874H81.645V168.536H74.8438V166.874ZM85.8366 172V162.182H87.6711V163.78H87.7925C87.9971 163.239 88.3316 162.817 88.7961 162.514C89.2606 162.207 89.8167 162.054 90.4644 162.054C91.1207 162.054 91.6704 162.207 92.1135 162.514C92.561 162.821 92.8912 163.243 93.1043 163.78H93.2066C93.441 163.256 93.8138 162.838 94.3252 162.527C94.8366 162.212 95.4459 162.054 96.1533 162.054C97.0439 162.054 97.7705 162.333 98.333 162.891C98.8998 163.45 99.1832 164.291 99.1832 165.416V172H97.2719V165.595C97.2719 164.93 97.0908 164.449 96.7286 164.151C96.3664 163.852 95.9339 163.703 95.431 163.703C94.8089 163.703 94.3252 163.895 93.98 164.278C93.6349 164.658 93.4623 165.146 93.4623 165.742V172H91.5574V165.474C91.5574 164.941 91.3912 164.513 91.0589 164.189C90.7265 163.865 90.2939 163.703 89.7613 163.703C89.3991 163.703 89.0645 163.799 88.7577 163.991C88.4552 164.178 88.2101 164.44 88.0226 164.777C87.8394 165.114 87.7478 165.504 87.7478 165.947V172H85.8366ZM105.88 172.198C104.96 172.198 104.157 171.987 103.471 171.565C102.785 171.143 102.252 170.553 101.873 169.795C101.493 169.036 101.304 168.15 101.304 167.136C101.304 166.117 101.493 165.227 101.873 164.464C102.252 163.701 102.785 163.109 103.471 162.687C104.157 162.265 104.96 162.054 105.88 162.054C106.801 162.054 107.604 162.265 108.29 162.687C108.976 163.109 109.509 163.701 109.888 164.464C110.267 165.227 110.457 166.117 110.457 167.136C110.457 168.15 110.267 169.036 109.888 169.795C109.509 170.553 108.976 171.143 108.29 171.565C107.604 171.987 106.801 172.198 105.88 172.198ZM105.887 170.594C106.483 170.594 106.978 170.436 107.37 170.121C107.762 169.805 108.052 169.386 108.239 168.862C108.431 168.337 108.527 167.76 108.527 167.129C108.527 166.503 108.431 165.928 108.239 165.403C108.052 164.875 107.762 164.451 107.37 164.131C106.978 163.812 106.483 163.652 105.887 163.652C105.286 163.652 104.787 163.812 104.391 164.131C103.999 164.451 103.707 164.875 103.515 165.403C103.328 165.928 103.234 166.503 103.234 167.129C103.234 167.76 103.328 168.337 103.515 168.862C103.707 169.386 103.999 169.805 104.391 170.121C104.787 170.436 105.286 170.594 105.887 170.594ZM118.81 167.928V162.182H120.728V172H118.848V170.3H118.746C118.52 170.824 118.158 171.261 117.659 171.61C117.165 171.955 116.549 172.128 115.812 172.128C115.181 172.128 114.623 171.989 114.137 171.712C113.656 171.431 113.277 171.016 113 170.466C112.727 169.916 112.59 169.237 112.59 168.427V162.182H114.502V168.197C114.502 168.866 114.687 169.398 115.058 169.795C115.429 170.191 115.91 170.389 116.502 170.389C116.86 170.389 117.216 170.3 117.57 170.121C117.928 169.942 118.224 169.671 118.458 169.309C118.697 168.947 118.814 168.487 118.81 167.928ZM125.207 166.17V172H123.296V162.182H125.13V163.78H125.252C125.477 163.26 125.831 162.842 126.313 162.527C126.798 162.212 127.41 162.054 128.147 162.054C128.816 162.054 129.402 162.195 129.905 162.476C130.408 162.753 130.798 163.166 131.075 163.716C131.352 164.266 131.49 164.945 131.49 165.755V172H129.579V165.985C129.579 165.273 129.394 164.717 129.023 164.317C128.652 163.912 128.143 163.71 127.495 163.71C127.052 163.71 126.658 163.805 126.313 163.997C125.972 164.189 125.701 164.47 125.501 164.841C125.305 165.207 125.207 165.651 125.207 166.17ZM138.636 162.182V163.716H133.274V162.182H138.636ZM134.712 159.83H136.623V169.117C136.623 169.488 136.678 169.767 136.789 169.955C136.9 170.138 137.043 170.263 137.217 170.332C137.396 170.396 137.59 170.428 137.799 170.428C137.953 170.428 138.087 170.417 138.202 170.396C138.317 170.374 138.406 170.357 138.47 170.344L138.815 171.923C138.705 171.966 138.547 172.009 138.342 172.051C138.138 172.098 137.882 172.124 137.575 172.128C137.073 172.136 136.604 172.047 136.169 171.859C135.734 171.672 135.383 171.382 135.114 170.99C134.846 170.598 134.712 170.106 134.712 169.513V159.83Z" fill="#333333"/>
<rect x="409.77" y="144" width="180" height="42" rx="8" fill="#156064" fill-opacity="0.1"/>
<path d="M435.542 162.69V163.969H422.503V162.69H435.542ZM435.542 165.452V166.73H422.503V165.452H435.542ZM434.309 157.909V171H432.487L425.833 161.399H425.718V171H423.736V157.909H425.571L432.225 167.523H432.346V157.909H434.309ZM441.493 171.179C440.692 171.179 439.972 171.026 439.333 170.719C438.698 170.408 438.191 169.982 437.812 169.44C437.432 168.899 437.23 168.281 437.204 167.587H439.122C439.169 168.149 439.418 168.612 439.87 168.974C440.321 169.336 440.863 169.517 441.493 169.517C441.996 169.517 442.441 169.402 442.829 169.172C443.221 168.938 443.528 168.616 443.75 168.207C443.976 167.798 444.089 167.331 444.089 166.807C444.089 166.274 443.973 165.799 443.743 165.381C443.513 164.964 443.196 164.636 442.791 164.397C442.39 164.158 441.93 164.037 441.41 164.033C441.014 164.033 440.616 164.101 440.215 164.237C439.814 164.374 439.491 164.553 439.243 164.774L437.434 164.506L438.169 157.909H445.367V159.603H439.812L439.397 163.266H439.473C439.729 163.018 440.068 162.812 440.49 162.646C440.916 162.479 441.372 162.396 441.858 162.396C442.655 162.396 443.364 162.586 443.986 162.965C444.613 163.344 445.105 163.862 445.463 164.518C445.825 165.17 446.004 165.92 446 166.768C446.004 167.616 445.812 168.373 445.424 169.038C445.041 169.702 444.508 170.227 443.826 170.61C443.149 170.989 442.371 171.179 441.493 171.179ZM452.892 171.217C451.882 171.213 451.019 170.947 450.303 170.418C449.587 169.89 449.04 169.121 448.66 168.111C448.281 167.101 448.092 165.884 448.092 164.461C448.092 163.042 448.281 161.83 448.66 160.824C449.044 159.818 449.594 159.051 450.31 158.523C451.03 157.994 451.891 157.73 452.892 157.73C453.893 157.73 454.752 157.996 455.468 158.529C456.184 159.058 456.731 159.825 457.111 160.83C457.494 161.832 457.686 163.042 457.686 164.461C457.686 165.888 457.496 167.107 457.117 168.117C456.738 169.123 456.19 169.892 455.474 170.425C454.758 170.953 453.898 171.217 452.892 171.217ZM452.892 169.511C453.778 169.511 454.471 169.078 454.969 168.213C455.472 167.348 455.724 166.097 455.724 164.461C455.724 163.374 455.609 162.456 455.378 161.706C455.153 160.952 454.827 160.381 454.4 159.993C453.979 159.601 453.476 159.405 452.892 159.405C452.01 159.405 451.317 159.839 450.815 160.709C450.312 161.578 450.058 162.829 450.054 164.461C450.054 165.552 450.167 166.474 450.393 167.229C450.623 167.979 450.949 168.548 451.371 168.935C451.793 169.319 452.3 169.511 452.892 169.511ZM464.511 171.217C463.501 171.213 462.638 170.947 461.922 170.418C461.206 169.89 460.659 169.121 460.28 168.111C459.9 167.101 459.711 165.884 459.711 164.461C459.711 163.042 459.9 161.83 460.28 160.824C460.663 159.818 461.213 159.051 461.929 158.523C462.649 157.994 463.51 157.73 464.511 157.73C465.513 157.73 466.371 157.996 467.087 158.529C467.803 159.058 468.351 159.825 468.73 160.83C469.113 161.832 469.305 163.042 469.305 164.461C469.305 165.888 469.116 167.107 468.736 168.117C468.357 169.123 467.809 169.892 467.093 170.425C466.378 170.953 465.517 171.217 464.511 171.217ZM464.511 169.511C465.397 169.511 466.09 169.078 466.589 168.213C467.091 167.348 467.343 166.097 467.343 164.461C467.343 163.374 467.228 162.456 466.998 161.706C466.772 160.952 466.446 160.381 466.02 159.993C465.598 159.601 465.095 159.405 464.511 159.405C463.629 159.405 462.937 159.839 462.434 160.709C461.931 161.578 461.677 162.829 461.673 164.461C461.673 165.552 461.786 166.474 462.012 167.229C462.242 167.979 462.568 168.548 462.99 168.935C463.412 169.319 463.919 169.511 464.511 169.511ZM473.61 169.21L473.514 169.907C473.45 170.418 473.342 170.951 473.188 171.505C473.039 172.063 472.884 172.581 472.722 173.058C472.564 173.536 472.434 173.915 472.332 174.196H470.977C471.032 173.932 471.109 173.574 471.207 173.122C471.305 172.675 471.401 172.174 471.494 171.62C471.588 171.066 471.658 170.501 471.705 169.926L471.769 169.21H473.61ZM480.367 171.217C479.357 171.213 478.494 170.947 477.778 170.418C477.062 169.89 476.514 169.121 476.135 168.111C475.756 167.101 475.566 165.884 475.566 164.461C475.566 163.042 475.756 161.83 476.135 160.824C476.519 159.818 477.068 159.051 477.784 158.523C478.504 157.994 479.365 157.73 480.367 157.73C481.368 157.73 482.227 157.996 482.943 158.529C483.658 159.058 484.206 159.825 484.585 160.83C484.969 161.832 485.161 163.042 485.161 164.461C485.161 165.888 484.971 167.107 484.592 168.117C484.212 169.123 483.665 169.892 482.949 170.425C482.233 170.953 481.372 171.217 480.367 171.217ZM480.367 169.511C481.253 169.511 481.945 169.078 482.444 168.213C482.947 167.348 483.198 166.097 483.198 164.461C483.198 163.374 483.083 162.456 482.853 161.706C482.627 160.952 482.301 160.381 481.875 159.993C481.453 159.601 480.95 159.405 480.367 159.405C479.484 159.405 478.792 159.839 478.289 160.709C477.786 161.578 477.533 162.829 477.528 164.461C477.528 165.552 477.641 166.474 477.867 167.229C478.097 167.979 478.423 168.548 478.845 168.935C479.267 169.319 479.774 169.511 480.367 169.511ZM491.986 171.217C490.976 171.213 490.113 170.947 489.397 170.418C488.681 169.89 488.133 169.121 487.754 168.111C487.375 167.101 487.185 165.884 487.185 164.461C487.185 163.042 487.375 161.83 487.754 160.824C488.138 159.818 488.687 159.051 489.403 158.523C490.123 157.994 490.984 157.73 491.986 157.73C492.987 157.73 493.846 157.996 494.562 158.529C495.278 159.058 495.825 159.825 496.204 160.83C496.588 161.832 496.78 163.042 496.78 164.461C496.78 165.888 496.59 167.107 496.211 168.117C495.832 169.123 495.284 169.892 494.568 170.425C493.852 170.953 492.991 171.217 491.986 171.217ZM491.986 169.511C492.872 169.511 493.565 169.078 494.063 168.213C494.566 167.348 494.817 166.097 494.817 164.461C494.817 163.374 494.702 162.456 494.472 161.706C494.246 160.952 493.92 160.381 493.494 159.993C493.072 159.601 492.57 159.405 491.986 159.405C491.104 159.405 490.411 159.839 489.908 160.709C489.405 161.578 489.152 162.829 489.148 164.461C489.148 165.552 489.261 166.474 489.486 167.229C489.717 167.979 490.043 168.548 490.464 168.935C490.886 169.319 491.393 169.511 491.986 169.511ZM503.605 171.217C502.595 171.213 501.732 170.947 501.016 170.418C500.3 169.89 499.753 169.121 499.373 168.111C498.994 167.101 498.804 165.884 498.804 164.461C498.804 163.042 498.994 161.83 499.373 160.824C499.757 159.818 500.307 159.051 501.022 158.523C501.743 157.994 502.603 157.73 503.605 157.73C504.606 157.73 505.465 157.996 506.181 158.529C506.897 159.058 507.444 159.825 507.824 160.83C508.207 161.832 508.399 163.042 508.399 164.461C508.399 165.888 508.209 167.107 507.83 168.117C507.451 169.123 506.903 169.892 506.187 170.425C505.471 170.953 504.611 171.217 503.605 171.217ZM503.605 169.511C504.491 169.511 505.184 169.078 505.682 168.213C506.185 167.348 506.437 166.097 506.437 164.461C506.437 163.374 506.321 162.456 506.091 161.706C505.866 160.952 505.54 160.381 505.113 159.993C504.691 159.601 504.189 159.405 503.605 159.405C502.723 159.405 502.03 159.839 501.527 160.709C501.025 161.578 500.771 162.829 500.767 164.461C500.767 165.552 500.88 166.474 501.106 167.229C501.336 167.979 501.662 168.548 502.084 168.935C502.505 169.319 503.013 169.511 503.605 169.511Z" fill="black"/>
<rect x="23.8193" y="333.502" width="566.361" height="4" rx="2" fill="#D9D9D9"/>
<rect x="23.8193" y="333.502" width="115.12" height="4" rx="2" fill="#156064"/>
<ellipse cx="140.896" cy="335.502" rx="11.6797" ry="11.8068" fill="#F5F5F5"/>
<path d="M28.7005 296.064V309.155H26.7253V296.064H28.7005ZM33.3347 303.325V309.155H31.4235V299.336H33.258V300.934H33.3794C33.6053 300.414 33.959 299.997 34.4405 299.682C34.9263 299.366 35.5378 299.209 36.275 299.209C36.9441 299.209 37.53 299.349 38.0328 299.63C38.5357 299.907 38.9256 300.321 39.2026 300.87C39.4796 301.42 39.6181 302.1 39.6181 302.91V309.155H37.7069V303.14C37.7069 302.428 37.5215 301.872 37.1507 301.471C36.78 301.066 36.2708 300.864 35.623 300.864C35.1799 300.864 34.7857 300.96 34.4405 301.152C34.0996 301.343 33.829 301.625 33.6287 301.995C33.4327 302.362 33.3347 302.805 33.3347 303.325ZM46.7644 299.336V300.87H41.4015V299.336H46.7644ZM42.8397 296.984H44.7509V306.272C44.7509 306.642 44.8063 306.922 44.9171 307.109C45.0279 307.292 45.1706 307.418 45.3453 307.486C45.5243 307.55 45.7182 307.582 45.927 307.582C46.0804 307.582 46.2147 307.571 46.3297 307.55C46.4448 307.529 46.5343 307.512 46.5982 307.499L46.9434 309.078C46.8326 309.12 46.6749 309.163 46.4703 309.206C46.2658 309.253 46.0101 309.278 45.7033 309.282C45.2005 309.291 44.7317 309.201 44.2971 309.014C43.8624 308.826 43.5108 308.537 43.2424 308.145C42.9739 307.753 42.8397 307.26 42.8397 306.668V296.984ZM53.0046 309.353C52.0373 309.353 51.2042 309.146 50.5053 308.733C49.8107 308.315 49.2738 307.729 48.8945 306.975C48.5195 306.216 48.332 305.328 48.332 304.309C48.332 303.304 48.5195 302.417 48.8945 301.65C49.2738 300.883 49.8022 300.285 50.4798 299.854C51.1616 299.424 51.9585 299.209 52.8704 299.209C53.4244 299.209 53.9613 299.3 54.4812 299.483C55.0011 299.667 55.4677 299.954 55.881 300.346C56.2944 300.738 56.6204 301.248 56.859 301.874C57.0977 302.496 57.217 303.253 57.217 304.143V304.821H49.4123V303.389H55.3441C55.3441 302.886 55.2418 302.441 55.0373 302.053C54.8327 301.661 54.5451 301.352 54.1744 301.126C53.8079 300.9 53.3775 300.787 52.8832 300.787C52.3462 300.787 51.8775 300.919 51.4769 301.184C51.0806 301.444 50.7738 301.785 50.5565 302.206C50.3434 302.624 50.2369 303.078 50.2369 303.568V304.687C50.2369 305.343 50.3519 305.901 50.582 306.361C50.8164 306.821 51.1424 307.173 51.56 307.416C51.9776 307.655 52.4656 307.774 53.0238 307.774C53.386 307.774 53.7163 307.723 54.0146 307.62C54.3129 307.514 54.5707 307.356 54.788 307.147C55.0053 306.939 55.1715 306.681 55.2866 306.374L57.0955 306.7C56.9506 307.233 56.6907 307.699 56.3157 308.1C55.945 308.496 55.4783 308.805 54.9158 309.027C54.3576 309.244 53.7205 309.353 53.0046 309.353ZM59.3375 309.155V299.336H61.1848V300.896H61.2871C61.4661 300.368 61.7814 299.952 62.2331 299.65C62.6891 299.343 63.2047 299.189 63.78 299.189C63.8993 299.189 64.04 299.194 64.2019 299.202C64.3681 299.211 64.498 299.221 64.5918 299.234V301.062C64.5151 301.041 64.3787 301.017 64.1827 300.992C63.9867 300.962 63.7907 300.947 63.5946 300.947C63.1429 300.947 62.7402 301.043 62.3865 301.235C62.0371 301.422 61.7601 301.684 61.5556 302.021C61.351 302.353 61.2488 302.733 61.2488 303.159V309.155H59.3375ZM70.1257 309.353C69.1584 309.353 68.3253 309.146 67.6264 308.733C66.9318 308.315 66.3949 307.729 66.0156 306.975C65.6406 306.216 65.4531 305.328 65.4531 304.309C65.4531 303.304 65.6406 302.417 66.0156 301.65C66.3949 300.883 66.9233 300.285 67.6009 299.854C68.2827 299.424 69.0795 299.209 69.9915 299.209C70.5455 299.209 71.0824 299.3 71.6023 299.483C72.1222 299.667 72.5888 299.954 73.0021 300.346C73.4155 300.738 73.7415 301.248 73.9801 301.874C74.2188 302.496 74.3381 303.253 74.3381 304.143V304.821H66.5334V303.389H72.4652C72.4652 302.886 72.3629 302.441 72.1584 302.053C71.9538 301.661 71.6662 301.352 71.2955 301.126C70.929 300.9 70.4986 300.787 70.0043 300.787C69.4673 300.787 68.9986 300.919 68.598 301.184C68.2017 301.444 67.8949 301.785 67.6776 302.206C67.4645 302.624 67.358 303.078 67.358 303.568V304.687C67.358 305.343 67.473 305.901 67.7031 306.361C67.9375 306.821 68.2635 307.173 68.6811 307.416C69.0987 307.655 69.5866 307.774 70.1449 307.774C70.5071 307.774 70.8374 307.723 71.1357 307.62C71.4339 307.514 71.6918 307.356 71.9091 307.147C72.1264 306.939 72.2926 306.681 72.4077 306.374L74.2166 306.7C74.0717 307.233 73.8118 307.699 73.4368 308.1C73.0661 308.496 72.5994 308.805 72.0369 309.027C71.4787 309.244 70.8416 309.353 70.1257 309.353ZM83.8159 301.733L82.0836 302.04C82.0112 301.819 81.8961 301.608 81.7385 301.407C81.585 301.207 81.3762 301.043 81.112 300.915C80.8478 300.787 80.5176 300.723 80.1213 300.723C79.5801 300.723 79.1284 300.845 78.7662 301.088C78.4039 301.326 78.2228 301.635 78.2228 302.015C78.2228 302.343 78.3443 302.607 78.5872 302.807C78.8301 303.008 79.2221 303.172 79.7633 303.299L81.323 303.657C82.2264 303.866 82.8997 304.188 83.3429 304.623C83.786 305.057 84.0076 305.622 84.0076 306.316C84.0076 306.905 83.8372 307.429 83.4963 307.889C83.1596 308.345 82.6887 308.703 82.0836 308.963C81.4828 309.223 80.786 309.353 79.9934 309.353C78.894 309.353 77.997 309.118 77.3024 308.65C76.6078 308.177 76.1816 307.505 76.024 306.636L77.8713 306.355C77.9863 306.836 78.2228 307.201 78.5808 307.448C78.9387 307.691 79.4054 307.812 79.9806 307.812C80.6071 307.812 81.1078 307.682 81.4828 307.422C81.8578 307.158 82.0453 306.836 82.0453 306.457C82.0453 306.15 81.9302 305.892 81.7001 305.684C81.4743 305.475 81.127 305.317 80.6582 305.211L78.9963 304.846C78.0801 304.637 77.4025 304.305 76.9636 303.849C76.5289 303.393 76.3116 302.816 76.3116 302.117C76.3116 301.537 76.4735 301.03 76.7974 300.596C77.1213 300.161 77.5687 299.822 78.1397 299.579C78.7108 299.332 79.3649 299.209 80.1021 299.209C81.1632 299.209 81.9984 299.439 82.6078 299.899C83.2172 300.355 83.6199 300.966 83.8159 301.733ZM90.6921 299.336V300.87H85.3292V299.336H90.6921ZM86.7674 296.984H88.6786V306.272C88.6786 306.642 88.734 306.922 88.8448 307.109C88.9556 307.292 89.0984 307.418 89.2731 307.486C89.4521 307.55 89.646 307.582 89.8548 307.582C90.0082 307.582 90.1424 307.571 90.2575 307.55C90.3725 307.529 90.462 307.512 90.5259 307.499L90.8711 309.078C90.7603 309.12 90.6026 309.163 90.3981 309.206C90.1935 309.253 89.9379 309.278 89.631 309.282C89.1282 309.291 88.6594 309.201 88.2248 309.014C87.7901 308.826 87.4386 308.537 87.1701 308.145C86.9016 307.753 86.7674 307.26 86.7674 306.668V296.984ZM97.7234 309.155V296.064H102.39C103.404 296.064 104.245 296.238 104.914 296.588C105.588 296.937 106.091 297.421 106.423 298.039C106.755 298.652 106.922 299.362 106.922 300.167C106.922 300.968 106.753 301.674 106.417 302.283C106.084 302.888 105.581 303.359 104.908 303.696C104.239 304.032 103.397 304.201 102.383 304.201H98.8484V302.5H102.204C102.843 302.5 103.363 302.409 103.764 302.226C104.169 302.042 104.465 301.776 104.652 301.427C104.84 301.077 104.934 300.657 104.934 300.167C104.934 299.673 104.838 299.245 104.646 298.883C104.458 298.52 104.162 298.243 103.757 298.052C103.357 297.856 102.831 297.758 102.179 297.758H99.6985V309.155H97.7234ZM104.186 303.248L107.42 309.155H105.17L102 303.248H104.186ZM112.029 309.372C111.407 309.372 110.844 309.257 110.341 309.027C109.838 308.792 109.44 308.454 109.146 308.01C108.856 307.567 108.711 307.024 108.711 306.38C108.711 305.826 108.818 305.37 109.031 305.012C109.244 304.655 109.532 304.371 109.894 304.162C110.256 303.954 110.661 303.796 111.108 303.689C111.556 303.583 112.012 303.502 112.476 303.446C113.064 303.378 113.542 303.323 113.908 303.28C114.275 303.233 114.541 303.159 114.707 303.057C114.873 302.954 114.956 302.788 114.956 302.558V302.513C114.956 301.955 114.799 301.522 114.483 301.216C114.172 300.909 113.708 300.755 113.09 300.755C112.446 300.755 111.939 300.898 111.569 301.184C111.202 301.465 110.949 301.778 110.808 302.123L109.012 301.714C109.225 301.118 109.536 300.636 109.945 300.27C110.358 299.899 110.833 299.63 111.37 299.464C111.907 299.294 112.472 299.209 113.064 299.209C113.456 299.209 113.872 299.255 114.311 299.349C114.754 299.439 115.167 299.605 115.551 299.848C115.939 300.091 116.256 300.438 116.503 300.89C116.75 301.337 116.874 301.919 116.874 302.635V309.155H115.007V307.812H114.931C114.807 308.059 114.622 308.302 114.375 308.541C114.127 308.78 113.81 308.978 113.422 309.135C113.034 309.293 112.57 309.372 112.029 309.372ZM112.444 307.838C112.973 307.838 113.424 307.733 113.799 307.525C114.179 307.316 114.466 307.043 114.662 306.706C114.863 306.365 114.963 306.001 114.963 305.613V304.348C114.895 304.416 114.762 304.48 114.566 304.539C114.375 304.595 114.155 304.644 113.908 304.687C113.661 304.725 113.42 304.761 113.186 304.795C112.951 304.825 112.755 304.851 112.598 304.872C112.227 304.919 111.888 304.998 111.581 305.108C111.279 305.219 111.036 305.379 110.853 305.588C110.674 305.792 110.584 306.065 110.584 306.406C110.584 306.879 110.759 307.237 111.108 307.48C111.458 307.718 111.903 307.838 112.444 307.838ZM124.003 299.336V300.87H118.64V299.336H124.003ZM120.078 296.984H121.989V306.272C121.989 306.642 122.045 306.922 122.155 307.109C122.266 307.292 122.409 307.418 122.584 307.486C122.763 307.55 122.956 307.582 123.165 307.582C123.319 307.582 123.453 307.571 123.568 307.55C123.683 307.529 123.773 307.512 123.836 307.499L124.182 309.078C124.071 309.12 123.913 309.163 123.709 309.206C123.504 309.253 123.248 309.278 122.942 309.282C122.439 309.291 121.97 309.201 121.535 309.014C121.101 308.826 120.749 308.537 120.481 308.145C120.212 307.753 120.078 307.26 120.078 306.668V296.984ZM130.243 309.353C129.276 309.353 128.442 309.146 127.744 308.733C127.049 308.315 126.512 307.729 126.133 306.975C125.758 306.216 125.57 305.328 125.57 304.309C125.57 303.304 125.758 302.417 126.133 301.65C126.512 300.883 127.04 300.285 127.718 299.854C128.4 299.424 129.197 299.209 130.109 299.209C130.663 299.209 131.2 299.3 131.719 299.483C132.239 299.667 132.706 299.954 133.119 300.346C133.533 300.738 133.859 301.248 134.097 301.874C134.336 302.496 134.455 303.253 134.455 304.143V304.821H126.651V303.389H132.582C132.582 302.886 132.48 302.441 132.276 302.053C132.071 301.661 131.783 301.352 131.413 301.126C131.046 300.9 130.616 300.787 130.121 300.787C129.585 300.787 129.116 300.919 128.715 301.184C128.319 301.444 128.012 301.785 127.795 302.206C127.582 302.624 127.475 303.078 127.475 303.568V304.687C127.475 305.343 127.59 305.901 127.82 306.361C128.055 306.821 128.381 307.173 128.798 307.416C129.216 307.655 129.704 307.774 130.262 307.774C130.624 307.774 130.955 307.723 131.253 307.62C131.551 307.514 131.809 307.356 132.026 307.147C132.244 306.939 132.41 306.681 132.525 306.374L134.334 306.7C134.189 307.233 133.929 307.699 133.554 308.1C133.183 308.496 132.717 308.805 132.154 309.027C131.596 309.244 130.959 309.353 130.243 309.353ZM137.132 303.721C137.132 302.119 137.343 300.645 137.765 299.298C138.187 297.951 138.802 296.709 139.612 295.571H141.363C141.048 295.993 140.754 296.511 140.481 297.125C140.209 297.738 139.97 298.412 139.765 299.145C139.561 299.873 139.401 300.63 139.286 301.414C139.171 302.194 139.113 302.963 139.113 303.721C139.113 304.736 139.214 305.762 139.414 306.802C139.614 307.842 139.885 308.807 140.226 309.698C140.567 310.588 140.946 311.315 141.363 311.878H139.612C138.802 310.74 138.187 309.498 137.765 308.151C137.343 306.804 137.132 305.328 137.132 303.721ZM143.379 312.836V299.336H145.245V300.928H145.405C145.516 300.723 145.675 300.487 145.884 300.218C146.093 299.95 146.383 299.716 146.754 299.515C147.124 299.311 147.614 299.209 148.224 299.209C149.016 299.209 149.724 299.409 150.346 299.809C150.968 300.21 151.456 300.787 151.81 301.542C152.168 302.296 152.347 303.204 152.347 304.265C152.347 305.326 152.17 306.236 151.816 306.994C151.462 307.748 150.977 308.33 150.359 308.739C149.741 309.144 149.036 309.346 148.243 309.346C147.646 309.346 147.158 309.246 146.779 309.046C146.404 308.846 146.11 308.611 145.897 308.343C145.684 308.074 145.52 307.836 145.405 307.627H145.29V312.836H143.379ZM145.251 304.245C145.251 304.936 145.352 305.541 145.552 306.061C145.752 306.581 146.042 306.988 146.421 307.282C146.8 307.571 147.265 307.716 147.815 307.716C148.386 307.716 148.863 307.565 149.246 307.262C149.63 306.956 149.92 306.54 150.116 306.016C150.316 305.492 150.416 304.902 150.416 304.245C150.416 303.598 150.318 303.016 150.122 302.5C149.93 301.985 149.641 301.578 149.253 301.28C148.869 300.981 148.39 300.832 147.815 300.832C147.261 300.832 146.792 300.975 146.408 301.26C146.029 301.546 145.741 301.944 145.545 302.456C145.349 302.967 145.251 303.564 145.251 304.245ZM155.747 309.276C155.398 309.276 155.097 309.152 154.846 308.905C154.594 308.654 154.469 308.351 154.469 307.998C154.469 307.648 154.594 307.35 154.846 307.103C155.097 306.851 155.398 306.726 155.747 306.726C156.097 306.726 156.397 306.851 156.648 307.103C156.9 307.35 157.026 307.648 157.026 307.998C157.026 308.232 156.966 308.447 156.847 308.643C156.732 308.835 156.578 308.988 156.386 309.103C156.195 309.218 155.982 309.276 155.747 309.276ZM162.443 309.372C161.821 309.372 161.258 309.257 160.755 309.027C160.252 308.792 159.854 308.454 159.56 308.01C159.27 307.567 159.125 307.024 159.125 306.38C159.125 305.826 159.232 305.37 159.445 305.012C159.658 304.655 159.946 304.371 160.308 304.162C160.67 303.954 161.075 303.796 161.522 303.689C161.97 303.583 162.426 303.502 162.89 303.446C163.478 303.378 163.956 303.323 164.322 303.28C164.689 303.233 164.955 303.159 165.121 303.057C165.287 302.954 165.37 302.788 165.37 302.558V302.513C165.37 301.955 165.213 301.522 164.897 301.216C164.586 300.909 164.122 300.755 163.504 300.755C162.86 300.755 162.353 300.898 161.983 301.184C161.616 301.465 161.363 301.778 161.222 302.123L159.426 301.714C159.639 301.118 159.95 300.636 160.359 300.27C160.772 299.899 161.248 299.63 161.784 299.464C162.321 299.294 162.886 299.209 163.478 299.209C163.87 299.209 164.286 299.255 164.725 299.349C165.168 299.439 165.581 299.605 165.965 299.848C166.353 300.091 166.67 300.438 166.917 300.89C167.164 301.337 167.288 301.919 167.288 302.635V309.155H165.422V307.812H165.345C165.221 308.059 165.036 308.302 164.789 308.541C164.542 308.78 164.224 308.978 163.836 309.135C163.449 309.293 162.984 309.372 162.443 309.372ZM162.858 307.838C163.387 307.838 163.838 307.733 164.213 307.525C164.593 307.316 164.88 307.043 165.076 306.706C165.277 306.365 165.377 306.001 165.377 305.613V304.348C165.309 304.416 165.176 304.48 164.98 304.539C164.789 304.595 164.569 304.644 164.322 304.687C164.075 304.725 163.834 304.761 163.6 304.795C163.365 304.825 163.169 304.851 163.012 304.872C162.641 304.919 162.302 304.998 161.995 305.108C161.693 305.219 161.45 305.379 161.267 305.588C161.088 305.792 160.998 306.065 160.998 306.406C160.998 306.879 161.173 307.237 161.522 307.48C161.872 307.718 162.317 307.838 162.858 307.838ZM173.509 303.721C173.509 305.328 173.298 306.804 172.876 308.151C172.454 309.498 171.839 310.74 171.029 311.878H169.278C169.593 311.456 169.887 310.938 170.16 310.324C170.432 309.711 170.671 309.039 170.876 308.311C171.08 307.578 171.24 306.819 171.355 306.035C171.47 305.251 171.528 304.48 171.528 303.721C171.528 302.711 171.427 301.687 171.227 300.647C171.027 299.607 170.756 298.642 170.415 297.751C170.074 296.861 169.695 296.134 169.278 295.571H171.029C171.839 296.709 172.454 297.951 172.876 299.298C173.298 300.645 173.509 302.119 173.509 303.721Z" fill="#333333"/>
<rect x="409.77" y="281.155" width="180" height="42" rx="8" fill="#156064" fill-opacity="0.1"/>
<path d="M433.52 308.334C432.719 308.334 431.998 308.18 431.359 307.873C430.724 307.562 430.217 307.136 429.838 306.595C429.459 306.054 429.256 305.436 429.231 304.741H431.148C431.195 305.304 431.444 305.766 431.896 306.128C432.348 306.49 432.889 306.672 433.52 306.672C434.023 306.672 434.468 306.557 434.856 306.326C435.248 306.092 435.555 305.77 435.776 305.361C436.002 304.952 436.115 304.486 436.115 303.961C436.115 303.429 436 302.954 435.77 302.536C435.54 302.118 435.222 301.79 434.817 301.552C434.417 301.313 433.956 301.191 433.437 301.187C433.04 301.187 432.642 301.255 432.241 301.392C431.841 301.528 431.517 301.707 431.27 301.929L429.461 301.66L430.196 295.064H437.393V296.758H431.839L431.423 300.42H431.5C431.756 300.173 432.094 299.966 432.516 299.8C432.942 299.634 433.398 299.551 433.884 299.551C434.681 299.551 435.39 299.74 436.013 300.12C436.639 300.499 437.131 301.017 437.489 301.673C437.851 302.325 438.03 303.075 438.026 303.923C438.03 304.771 437.839 305.527 437.451 306.192C437.067 306.857 436.535 307.381 435.853 307.765C435.175 308.144 434.398 308.334 433.52 308.334ZM441.171 308.276C440.822 308.276 440.521 308.152 440.27 307.905C440.018 307.654 439.893 307.351 439.893 306.998C439.893 306.648 440.018 306.35 440.27 306.103C440.521 305.851 440.822 305.726 441.171 305.726C441.52 305.726 441.821 305.851 442.072 306.103C442.324 306.35 442.449 306.648 442.449 306.998C442.449 307.232 442.39 307.447 442.27 307.643C442.155 307.835 442.002 307.988 441.81 308.103C441.618 308.218 441.405 308.276 441.171 308.276ZM449.08 308.334C448.496 308.325 447.92 308.218 447.354 308.014C446.791 307.809 446.28 307.468 445.82 306.991C445.359 306.514 444.991 305.873 444.714 305.067C444.441 304.262 444.305 303.256 444.305 302.05C444.305 300.908 444.418 299.894 444.643 299.008C444.874 298.121 445.204 297.373 445.634 296.764C446.065 296.15 446.585 295.684 447.194 295.364C447.803 295.044 448.487 294.885 449.246 294.885C450.026 294.885 450.718 295.038 451.323 295.345C451.928 295.652 452.418 296.076 452.793 296.617C453.173 297.158 453.413 297.774 453.516 298.464H451.566C451.434 297.919 451.172 297.473 450.78 297.128C450.388 296.783 449.876 296.611 449.246 296.611C448.287 296.611 447.539 297.028 447.002 297.863C446.469 298.699 446.201 299.86 446.197 301.347H446.293C446.518 300.976 446.795 300.661 447.124 300.401C447.456 300.137 447.827 299.934 448.236 299.794C448.649 299.649 449.084 299.576 449.54 299.576C450.298 299.576 450.984 299.762 451.598 300.133C452.216 300.499 452.708 301.006 453.075 301.654C453.441 302.302 453.624 303.043 453.624 303.878C453.624 304.713 453.435 305.47 453.055 306.147C452.68 306.825 452.152 307.362 451.47 307.758C450.788 308.15 449.991 308.342 449.08 308.334ZM449.073 306.672C449.576 306.672 450.026 306.548 450.422 306.301C450.818 306.054 451.131 305.721 451.362 305.304C451.592 304.886 451.707 304.419 451.707 303.904C451.707 303.401 451.594 302.943 451.368 302.53C451.146 302.116 450.839 301.788 450.447 301.545C450.06 301.302 449.616 301.181 449.118 301.181C448.739 301.181 448.387 301.253 448.063 301.398C447.744 301.543 447.462 301.743 447.219 301.999C446.977 302.255 446.785 302.549 446.644 302.881C446.508 303.209 446.44 303.557 446.44 303.923C446.44 304.413 446.553 304.867 446.778 305.285C447.009 305.702 447.322 306.039 447.718 306.294C448.119 306.546 448.57 306.672 449.073 306.672ZM462.786 305.7V305.01C462.786 304.515 462.888 304.064 463.093 303.655C463.301 303.241 463.604 302.911 464 302.664C464.401 302.412 464.884 302.287 465.451 302.287C466.031 302.287 466.517 302.41 466.909 302.657C467.301 302.905 467.597 303.235 467.797 303.648C468.002 304.062 468.104 304.515 468.104 305.01V305.7C468.104 306.194 468.002 306.648 467.797 307.062C467.593 307.471 467.292 307.801 466.896 308.052C466.504 308.299 466.022 308.423 465.451 308.423C464.876 308.423 464.39 308.299 463.994 308.052C463.597 307.801 463.297 307.471 463.093 307.062C462.888 306.648 462.786 306.194 462.786 305.7ZM464.275 305.01V305.7C464.275 306.066 464.362 306.399 464.537 306.697C464.712 306.995 465.017 307.145 465.451 307.145C465.882 307.145 466.182 306.995 466.352 306.697C466.523 306.399 466.608 306.066 466.608 305.7V305.01C466.608 304.643 466.525 304.311 466.359 304.012C466.197 303.714 465.894 303.565 465.451 303.565C465.025 303.565 464.722 303.714 464.544 304.012C464.365 304.311 464.275 304.643 464.275 305.01ZM456.202 298.209V297.518C456.202 297.024 456.304 296.57 456.509 296.157C456.718 295.743 457.02 295.413 457.416 295.166C457.817 294.919 458.301 294.795 458.867 294.795C459.447 294.795 459.933 294.919 460.325 295.166C460.717 295.413 461.013 295.743 461.213 296.157C461.414 296.57 461.514 297.024 461.514 297.518V298.209C461.514 298.703 461.411 299.157 461.207 299.57C461.007 299.979 460.708 300.309 460.312 300.561C459.92 300.808 459.438 300.932 458.867 300.932C458.288 300.932 457.8 300.808 457.404 300.561C457.012 300.309 456.713 299.979 456.509 299.57C456.304 299.157 456.202 298.703 456.202 298.209ZM457.698 297.518V298.209C457.698 298.575 457.783 298.907 457.953 299.206C458.128 299.504 458.433 299.653 458.867 299.653C459.294 299.653 459.592 299.504 459.762 299.206C459.937 298.907 460.024 298.575 460.024 298.209V297.518C460.024 297.152 459.941 296.819 459.775 296.521C459.609 296.223 459.306 296.074 458.867 296.074C458.441 296.074 458.139 296.223 457.96 296.521C457.785 296.819 457.698 297.152 457.698 297.518ZM456.809 308.155L465.809 295.064H467.337L458.337 308.155H456.809Z" fill="black"/>
<rect x="23.8193" y="470.657" width="566.361" height="4" rx="2" fill="#D9D9D9"/>
<rect x="23.8193" y="470.657" width="326.862" height="4" rx="2" fill="#156064"/>
<ellipse cx="354.761" cy="472.657" rx="11.6797" ry="11.8068" fill="#F5F5F5"/>
<path d="M26.6452 446.309V433.218H28.6204V444.609H34.5522V446.309H26.6452ZM40.7876 446.507C39.8672 446.507 39.0639 446.296 38.3778 445.874C37.6918 445.453 37.1591 444.862 36.7798 444.104C36.4006 443.345 36.2109 442.459 36.2109 441.445C36.2109 440.426 36.4006 439.536 36.7798 438.773C37.1591 438.01 37.6918 437.418 38.3778 436.996C39.0639 436.574 39.8672 436.363 40.7876 436.363C41.7081 436.363 42.5114 436.574 43.1974 436.996C43.8835 437.418 44.4162 438.01 44.7955 438.773C45.1747 439.536 45.3643 440.426 45.3643 441.445C45.3643 442.459 45.1747 443.345 44.7955 444.104C44.4162 444.862 43.8835 445.453 43.1974 445.874C42.5114 446.296 41.7081 446.507 40.7876 446.507ZM40.794 444.903C41.3906 444.903 41.8849 444.745 42.277 444.43C42.669 444.114 42.9588 443.695 43.1463 443.171C43.3381 442.646 43.4339 442.069 43.4339 441.438C43.4339 440.812 43.3381 440.237 43.1463 439.712C42.9588 439.184 42.669 438.76 42.277 438.44C41.8849 438.121 41.3906 437.961 40.794 437.961C40.1932 437.961 39.6946 438.121 39.2983 438.44C38.9063 438.76 38.6143 439.184 38.4226 439.712C38.2351 440.237 38.1413 440.812 38.1413 441.438C38.1413 442.069 38.2351 442.646 38.4226 443.171C38.6143 443.695 38.9063 444.114 39.2983 444.43C39.6946 444.745 40.1932 444.903 40.794 444.903ZM50.3549 446.526C49.7328 446.526 49.1703 446.411 48.6674 446.181C48.1646 445.947 47.7662 445.608 47.4721 445.165C47.1824 444.722 47.0375 444.178 47.0375 443.535C47.0375 442.981 47.144 442.525 47.3571 442.167C47.5701 441.809 47.8578 441.526 48.22 441.317C48.5822 441.108 48.987 440.95 49.4345 440.844C49.8819 440.737 50.3379 440.656 50.8024 440.601C51.3904 440.533 51.8677 440.477 52.2342 440.435C52.6007 440.388 52.867 440.313 53.0332 440.211C53.1994 440.109 53.2825 439.943 53.2825 439.712V439.668C53.2825 439.11 53.1248 438.677 52.8095 438.37C52.4984 438.063 52.0339 437.91 51.416 437.91C50.7725 437.91 50.2654 438.053 49.8947 438.338C49.5282 438.619 49.2747 438.933 49.1341 439.278L47.3379 438.869C47.551 438.272 47.862 437.791 48.2711 437.424C48.6845 437.053 49.1596 436.785 49.6966 436.619C50.2335 436.448 50.7981 436.363 51.3904 436.363C51.7825 436.363 52.198 436.41 52.6369 436.504C53.0801 436.593 53.4934 436.759 53.877 437.002C54.2647 437.245 54.5822 437.592 54.8294 438.044C55.0765 438.492 55.2001 439.073 55.2001 439.789V446.309H53.3336V444.967H53.2569C53.1333 445.214 52.948 445.457 52.7008 445.695C52.4537 445.934 52.1362 446.132 51.7484 446.29C51.3606 446.448 50.8961 446.526 50.3549 446.526ZM50.7704 444.992C51.2988 444.992 51.7505 444.888 52.1255 444.679C52.5048 444.47 52.7924 444.198 52.9885 443.861C53.1887 443.52 53.2889 443.156 53.2889 442.768V441.502C53.2207 441.57 53.0886 441.634 52.8926 441.694C52.7008 441.749 52.4814 441.798 52.2342 441.841C51.987 441.879 51.7463 441.916 51.5119 441.95C51.2775 441.98 51.0815 442.005 50.9238 442.026C50.5531 442.073 50.2143 442.152 49.9075 442.263C49.6049 442.374 49.362 442.534 49.1788 442.742C48.9998 442.947 48.9103 443.22 48.9103 443.561C48.9103 444.034 49.085 444.391 49.4345 444.634C49.7839 444.873 50.2292 444.992 50.7704 444.992ZM59.657 440.48V446.309H57.7457V436.491H59.5803V438.089H59.7017C59.9276 437.569 60.2813 437.151 60.7628 436.836C61.2486 436.521 61.8601 436.363 62.5973 436.363C63.2663 436.363 63.8523 436.504 64.3551 436.785C64.858 437.062 65.2479 437.475 65.5249 438.025C65.8018 438.575 65.9403 439.254 65.9403 440.064V446.309H64.0291V440.294C64.0291 439.583 63.8438 439.026 63.473 438.626C63.1023 438.221 62.593 438.019 61.9453 438.019C61.5021 438.019 61.108 438.114 60.7628 438.306C60.4219 438.498 60.1513 438.779 59.951 439.15C59.755 439.516 59.657 439.96 59.657 440.48ZM72.775 434.918V433.218H82.9064V434.918H78.8219V446.309H76.8532V434.918H72.775ZM87.7995 446.507C86.8322 446.507 85.9991 446.301 85.3002 445.887C84.6056 445.47 84.0687 444.884 83.6895 444.129C83.3145 443.371 83.127 442.482 83.127 441.464C83.127 440.458 83.3145 439.572 83.6895 438.805C84.0687 438.038 84.5971 437.439 85.2747 437.009C85.9565 436.578 86.7534 436.363 87.6653 436.363C88.2193 436.363 88.7562 436.455 89.2761 436.638C89.796 436.821 90.2626 437.109 90.676 437.501C91.0893 437.893 91.4153 438.402 91.6539 439.029C91.8926 439.651 92.0119 440.407 92.0119 441.298V441.975H84.2072V440.543H90.139C90.139 440.041 90.0368 439.595 89.8322 439.208C89.6277 438.815 89.34 438.507 88.9693 438.281C88.6028 438.055 88.1724 437.942 87.6781 437.942C87.1412 437.942 86.6724 438.074 86.2718 438.338C85.8755 438.598 85.5687 438.939 85.3514 439.361C85.1383 439.779 85.0318 440.232 85.0318 440.722V441.841C85.0318 442.497 85.1468 443.056 85.377 443.516C85.6113 443.976 85.9373 444.328 86.3549 444.57C86.7725 444.809 87.2605 444.928 87.8187 444.928C88.1809 444.928 88.5112 444.877 88.8095 444.775C89.1078 444.668 89.3656 444.511 89.5829 444.302C89.8002 444.093 89.9664 443.835 90.0815 443.529L91.8904 443.855C91.7456 444.387 91.4856 444.854 91.1106 445.254C90.7399 445.651 90.2733 445.96 89.7108 446.181C89.1525 446.399 88.5154 446.507 87.7995 446.507ZM96.0437 440.48V446.309H94.1325V436.491H95.967V438.089H96.0884C96.3143 437.569 96.668 437.151 97.1495 436.836C97.6353 436.521 98.2468 436.363 98.984 436.363C99.6531 436.363 100.239 436.504 100.742 436.785C101.245 437.062 101.635 437.475 101.912 438.025C102.189 438.575 102.327 439.254 102.327 440.064V446.309H100.416V440.294C100.416 439.583 100.23 439.026 99.8597 438.626C99.489 438.221 98.9798 438.019 98.332 438.019C97.8888 438.019 97.4947 438.114 97.1495 438.306C96.8086 438.498 96.538 438.779 96.3377 439.15C96.1417 439.516 96.0437 439.96 96.0437 440.48ZM111.11 442.237V436.491H113.027V446.309H111.148V444.609H111.046C110.82 445.133 110.458 445.57 109.959 445.919C109.465 446.264 108.849 446.437 108.112 446.437C107.481 446.437 106.923 446.298 106.437 446.021C105.956 445.74 105.576 445.325 105.299 444.775C105.027 444.225 104.89 443.546 104.89 442.736V436.491H106.801V442.506C106.801 443.175 106.987 443.708 107.358 444.104C107.728 444.5 108.21 444.698 108.802 444.698C109.16 444.698 109.516 444.609 109.87 444.43C110.228 444.251 110.524 443.98 110.758 443.618C110.997 443.256 111.114 442.796 111.11 442.237ZM115.595 446.309V436.491H117.443V438.051H117.545C117.724 437.522 118.039 437.107 118.491 436.804C118.947 436.497 119.463 436.344 120.038 436.344C120.157 436.344 120.298 436.348 120.46 436.357C120.626 436.365 120.756 436.376 120.85 436.389V438.217C120.773 438.195 120.637 438.172 120.441 438.146C120.244 438.117 120.048 438.102 119.852 438.102C119.401 438.102 118.998 438.198 118.644 438.389C118.295 438.577 118.018 438.839 117.813 439.176C117.609 439.508 117.507 439.887 117.507 440.313V446.309H115.595ZM126.384 446.507C125.416 446.507 124.583 446.301 123.884 445.887C123.19 445.47 122.653 444.884 122.273 444.129C121.898 443.371 121.711 442.482 121.711 441.464C121.711 440.458 121.898 439.572 122.273 438.805C122.653 438.038 123.181 437.439 123.859 437.009C124.54 436.578 125.337 436.363 126.249 436.363C126.803 436.363 127.34 436.455 127.86 436.638C128.38 436.821 128.847 437.109 129.26 437.501C129.673 437.893 129.999 438.402 130.238 439.029C130.477 439.651 130.596 440.407 130.596 441.298V441.975H122.791V440.543H128.723C128.723 440.041 128.621 439.595 128.416 439.208C128.212 438.815 127.924 438.507 127.553 438.281C127.187 438.055 126.756 437.942 126.262 437.942C125.725 437.942 125.256 438.074 124.856 438.338C124.46 438.598 124.153 438.939 123.935 439.361C123.722 439.779 123.616 440.232 123.616 440.722V441.841C123.616 442.497 123.731 443.056 123.961 443.516C124.195 443.976 124.521 444.328 124.939 444.57C125.357 444.809 125.844 444.928 126.403 444.928C126.765 444.928 127.095 444.877 127.393 444.775C127.692 444.668 127.95 444.511 128.167 444.302C128.384 444.093 128.55 443.835 128.665 443.529L130.474 443.855C130.33 444.387 130.07 444.854 129.695 445.254C129.324 445.651 128.857 445.96 128.295 446.181C127.737 446.399 127.099 446.507 126.384 446.507Z" fill="#333333"/>
<rect x="409.77" y="418.309" width="180" height="42" rx="8" fill="#156064" fill-opacity="0.1"/>
<path d="M426.225 442.752V441.154L431.882 432.218H433.141V434.57H432.342L428.296 440.975V441.078H436.049V442.752H426.225ZM432.431 445.309V442.266L432.444 441.538V432.218H434.317V445.309H432.431ZM442.7 445.488C441.784 445.488 440.974 445.33 440.271 445.015C439.572 444.7 439.025 444.265 438.628 443.711C438.232 443.157 438.036 442.526 438.04 441.819C438.036 441.265 438.149 440.756 438.379 440.291C438.613 439.823 438.931 439.433 439.331 439.122C439.732 438.806 440.18 438.606 440.674 438.521V438.444C440.022 438.286 439.5 437.937 439.108 437.396C438.716 436.855 438.522 436.232 438.526 435.529C438.522 434.86 438.699 434.264 439.057 433.739C439.419 433.211 439.915 432.796 440.546 432.493C441.177 432.19 441.895 432.039 442.7 432.039C443.497 432.039 444.209 432.193 444.835 432.499C445.466 432.802 445.962 433.217 446.324 433.746C446.687 434.27 446.87 434.864 446.874 435.529C446.87 436.232 446.67 436.855 446.273 437.396C445.877 437.937 445.361 438.286 444.726 438.444V438.521C445.216 438.606 445.657 438.806 446.05 439.122C446.446 439.433 446.761 439.823 446.996 440.291C447.234 440.756 447.356 441.265 447.36 441.819C447.356 442.526 447.155 443.157 446.759 443.711C446.363 444.265 445.813 444.7 445.11 445.015C444.411 445.33 443.608 445.488 442.7 445.488ZM442.7 443.871C443.241 443.871 443.71 443.781 444.106 443.602C444.503 443.419 444.809 443.166 445.027 442.842C445.244 442.514 445.355 442.13 445.359 441.691C445.355 441.235 445.236 440.833 445.001 440.483C444.771 440.134 444.458 439.859 444.062 439.659C443.665 439.458 443.211 439.358 442.7 439.358C442.184 439.358 441.726 439.458 441.326 439.659C440.925 439.859 440.61 440.134 440.38 440.483C440.15 440.833 440.037 441.235 440.041 441.691C440.037 442.13 440.141 442.514 440.354 442.842C440.572 443.166 440.881 443.419 441.281 443.602C441.682 443.781 442.155 443.871 442.7 443.871ZM442.7 437.779C443.135 437.779 443.52 437.692 443.857 437.517C444.194 437.342 444.458 437.1 444.65 436.788C444.846 436.477 444.946 436.113 444.95 435.695C444.946 435.286 444.848 434.928 444.656 434.622C444.469 434.315 444.206 434.078 443.87 433.912C443.533 433.742 443.143 433.656 442.7 433.656C442.248 433.656 441.852 433.742 441.511 433.912C441.175 434.078 440.912 434.315 440.725 434.622C440.537 434.928 440.446 435.286 440.45 435.695C440.446 436.113 440.54 436.477 440.731 436.788C440.923 437.1 441.187 437.342 441.524 437.517C441.865 437.692 442.257 437.779 442.7 437.779ZM454.593 432.218H456.99L461.157 442.394H461.311L465.478 432.218H467.875V445.309H465.996V435.836H465.874L462.014 445.29H460.454L456.593 435.83H456.472V445.309H454.593V432.218ZM474.729 445.507C473.809 445.507 473.005 445.296 472.319 444.874C471.633 444.453 471.1 443.862 470.721 443.104C470.342 442.345 470.152 441.459 470.152 440.445C470.152 439.426 470.342 438.536 470.721 437.773C471.1 437.01 471.633 436.418 472.319 435.996C473.005 435.574 473.809 435.363 474.729 435.363C475.65 435.363 476.453 435.574 477.139 435.996C477.825 436.418 478.358 437.01 478.737 437.773C479.116 438.536 479.306 439.426 479.306 440.445C479.306 441.459 479.116 442.345 478.737 443.104C478.358 443.862 477.825 444.453 477.139 444.874C476.453 445.296 475.65 445.507 474.729 445.507ZM474.735 443.903C475.332 443.903 475.826 443.745 476.218 443.43C476.61 443.114 476.9 442.695 477.088 442.171C477.279 441.646 477.375 441.069 477.375 440.438C477.375 439.812 477.279 439.237 477.088 438.712C476.9 438.184 476.61 437.76 476.218 437.44C475.826 437.121 475.332 436.961 474.735 436.961C474.135 436.961 473.636 437.121 473.24 437.44C472.848 437.76 472.556 438.184 472.364 438.712C472.176 439.237 472.083 439.812 472.083 440.438C472.083 441.069 472.176 441.646 472.364 442.171C472.556 442.695 472.848 443.114 473.24 443.43C473.636 443.745 474.135 443.903 474.735 443.903ZM483.35 439.48V445.309H481.439V435.491H483.274V437.089H483.395C483.621 436.569 483.975 436.151 484.456 435.836C484.942 435.521 485.553 435.363 486.291 435.363C486.96 435.363 487.546 435.504 488.048 435.785C488.551 436.062 488.941 436.475 489.218 437.025C489.495 437.575 489.634 438.254 489.634 439.064V445.309H487.722V439.294C487.722 438.583 487.537 438.026 487.166 437.626C486.796 437.221 486.286 437.019 485.639 437.019C485.195 437.019 484.801 437.114 484.456 437.306C484.115 437.498 483.845 437.779 483.644 438.15C483.448 438.516 483.35 438.96 483.35 439.48ZM496.78 435.491V437.025H491.417V435.491H496.78ZM492.855 433.139H494.767V442.426C494.767 442.797 494.822 443.076 494.933 443.264C495.044 443.447 495.186 443.573 495.361 443.641C495.54 443.705 495.734 443.737 495.943 443.737C496.096 443.737 496.23 443.726 496.345 443.705C496.46 443.683 496.55 443.666 496.614 443.654L496.959 445.232C496.848 445.275 496.691 445.318 496.486 445.36C496.281 445.407 496.026 445.433 495.719 445.437C495.216 445.445 494.747 445.356 494.313 445.168C493.878 444.981 493.526 444.691 493.258 444.299C492.99 443.907 492.855 443.415 492.855 442.823V433.139ZM501.016 439.48V445.309H499.105V432.218H500.991V437.089H501.112C501.342 436.561 501.694 436.141 502.167 435.83C502.64 435.519 503.258 435.363 504.021 435.363C504.694 435.363 505.282 435.502 505.785 435.779C506.292 436.056 506.684 436.469 506.961 437.019C507.242 437.564 507.383 438.246 507.383 439.064V445.309H505.472V439.294C505.472 438.574 505.286 438.016 504.915 437.619C504.545 437.219 504.029 437.019 503.369 437.019C502.917 437.019 502.512 437.114 502.154 437.306C501.8 437.498 501.521 437.779 501.317 438.15C501.116 438.516 501.016 438.96 501.016 439.48ZM517.29 437.888L515.558 438.195C515.486 437.973 515.371 437.762 515.213 437.562C515.06 437.362 514.851 437.198 514.587 437.07C514.322 436.942 513.992 436.878 513.596 436.878C513.055 436.878 512.603 436.999 512.241 437.242C511.879 437.481 511.697 437.79 511.697 438.169C511.697 438.497 511.819 438.761 512.062 438.962C512.305 439.162 512.697 439.326 513.238 439.454L514.798 439.812C515.701 440.021 516.374 440.342 516.817 440.777C517.261 441.212 517.482 441.776 517.482 442.471C517.482 443.059 517.312 443.583 516.971 444.043C516.634 444.499 516.163 444.857 515.558 445.117C514.957 445.377 514.261 445.507 513.468 445.507C512.369 445.507 511.472 445.273 510.777 444.804C510.082 444.331 509.656 443.66 509.499 442.791L511.346 442.509C511.461 442.991 511.697 443.355 512.055 443.602C512.413 443.845 512.88 443.967 513.455 443.967C514.082 443.967 514.582 443.837 514.957 443.577C515.332 443.313 515.52 442.991 515.52 442.612C515.52 442.305 515.405 442.047 515.175 441.838C514.949 441.629 514.602 441.472 514.133 441.365L512.471 441.001C511.555 440.792 510.877 440.46 510.438 440.004C510.004 439.548 509.786 438.97 509.786 438.271C509.786 437.692 509.948 437.185 510.272 436.75C510.596 436.315 511.043 435.977 511.614 435.734C512.185 435.487 512.839 435.363 513.577 435.363C514.638 435.363 515.473 435.593 516.082 436.053C516.692 436.509 517.094 437.121 517.29 437.888Z" fill="black"/>
</svg>
